<svg width="30" height="30" viewBox="0 0 30 30" fill="none" xmlns="http://www.w3.org/2000/svg">
<path d="M5 5H7.03204C7.74125 5 8.09586 5 8.37768 5.15542C8.49389 5.21951 8.59916 5.3017 8.68953 5.3989C8.90865 5.63461 8.99466 5.97863 9.16667 6.66667L9.39366 7.57464C9.52001 8.08002 9.58318 8.33271 9.68068 8.54469C10.0192 9.28061 10.6933 9.80692 11.4893 9.95682C11.7186 10 11.9791 10 12.5 10V10" stroke="white" stroke-width="2.5" stroke-linecap="round"/>
<path d="M22.5 21.25H9.43863C9.25589 21.25 9.16452 21.25 9.0952 21.2422C8.36072 21.16 7.85756 20.4619 8.01181 19.7391C8.02637 19.6709 8.05526 19.5842 8.11305 19.4109V19.4109C8.17721 19.2184 8.20929 19.1221 8.24473 19.0372C8.60758 18.1677 9.42847 17.576 10.3681 17.5068C10.4599 17.5 10.5613 17.5 10.7642 17.5H17.5" stroke="white" stroke-width="2.5" stroke-linecap="round" stroke-linejoin="round"/>
<path d="M18.1598 17.5H13.7179C12.198 17.5 11.438 17.5 10.8518 17.1558C10.6043 17.0104 10.3836 16.8234 10.1995 16.6032C9.76359 16.0815 9.63866 15.3319 9.38879 13.8327C9.13561 12.3137 9.00902 11.5541 9.30953 10.9916C9.43499 10.7567 9.60902 10.5513 9.82005 10.3889C10.3256 10 11.0956 10 12.6356 10H20.9549C22.7679 10 23.6744 10 24.0408 10.5928C24.4072 11.1857 24.0018 11.9965 23.191 13.618L22.632 14.7361C21.9596 16.0809 21.6234 16.7533 21.0192 17.1266C20.4151 17.5 19.6634 17.5 18.1598 17.5Z" stroke="white" stroke-width="2.5" stroke-linecap="round"/>
<circle cx="21.25" cy="25" r="1.25" fill="white"/>
<circle cx="11.25" cy="25" r="1.25" fill="white"/>
</svg>
