<svg width="248" height="133" viewBox="0 0 248 133" fill="none" xmlns="http://www.w3.org/2000/svg">
<path d="M26.7423 67L32.7079 19.001H40.3877L34.4907 67H26.7423ZM1.37139 56.0288L1.37139 48.5547L45.6676 48.5547L45.6676 56.0288L1.37139 56.0288ZM8.98266 67L14.9483 19.001H22.6281L16.6625 67H8.98266ZM3.70277 37.4463L3.70277 29.9722L47.9304 29.9722L47.999 37.4463L3.70277 37.4463ZM77.3968 29.5608C80.3224 29.5608 82.9281 30.1551 85.2137 31.3436C87.5451 32.4864 89.3736 34.2693 90.6993 36.6921C92.025 39.0692 92.6879 42.132 92.6879 45.8804L92.6879 67H81.9909L81.9909 47.5261C81.9909 44.5548 81.3281 42.3605 80.0024 40.9434C78.7224 39.5263 76.8939 38.8177 74.5168 38.8177C72.8254 38.8177 71.294 39.1834 69.9226 39.9149C68.5969 40.6006 67.5455 41.6748 66.7684 43.1376C66.037 44.6005 65.6713 46.4747 65.6713 48.7604L65.6713 67L54.9744 67L54.9744 16.1211H65.6713L65.6713 40.3263L63.2713 37.2406C64.597 34.7721 66.4941 32.875 68.9627 31.5493C71.4312 30.2236 74.2425 29.5608 77.3968 29.5608ZM121.646 67.5486C117.44 67.5486 113.737 66.7257 110.537 65.08C107.383 63.4344 104.938 61.1944 103.2 58.3602C101.463 55.4802 100.595 52.2117 100.595 48.5547C100.595 44.8519 101.441 41.5834 103.132 38.7492C104.869 35.8692 107.223 33.6293 110.195 32.0293C113.166 30.3836 116.526 29.5608 120.274 29.5608C123.886 29.5608 127.131 30.3379 130.011 31.8922C132.937 33.4007 135.246 35.5949 136.937 38.4749C138.628 41.3091 139.474 44.7148 139.474 48.6918C139.474 49.1032 139.451 49.5832 139.405 50.1318C139.36 50.6346 139.314 51.1146 139.268 51.5718H109.303L109.303 45.3319H133.646L129.531 47.1833C129.531 45.2633 129.143 43.5948 128.366 42.1777C127.589 40.7606 126.514 39.6634 125.143 38.8863C123.771 38.0635 122.172 37.652 120.343 37.652C118.514 37.652 116.892 38.0635 115.475 38.8863C114.103 39.6634 113.029 40.7834 112.252 42.2462C111.475 43.6633 111.086 45.3547 111.086 47.3204L111.086 48.9661C111.086 50.9775 111.52 52.7603 112.389 54.3146C113.303 55.8231 114.56 56.9888 116.16 57.8116C117.806 58.5887 119.726 58.9773 121.92 58.9773C123.886 58.9773 125.6 58.6802 127.063 58.0859C128.571 57.4916 129.943 56.6002 131.177 55.4117L136.868 61.583C135.177 63.5029 133.051 64.9886 130.491 66.04C127.931 67.0457 124.983 67.5486 121.646 67.5486ZM141.614 67L158.14 45.3319L157.934 51.2289L142.094 30.1093H154.094L164.105 43.8919L159.579 44.0291L169.934 30.1093H181.316L165.408 51.0232L165.408 45.2633L181.865 67H169.728L159.237 52.326L163.694 52.9432L153.271 67H141.614Z" fill="black"/>
<path d="M203.561 70.4548C200.581 70.4548 197.931 69.9711 195.609 69.0038C193.287 68.0364 191.45 66.7208 190.095 65.057C188.741 63.3932 188.064 61.4779 188.064 59.311C188.064 57.2989 188.509 55.4997 189.399 53.9132C190.289 52.2881 191.701 50.7791 193.636 49.3861C195.57 47.9544 198.027 46.5614 201.007 45.2072C203.174 44.2011 204.876 43.3112 206.114 42.5373C207.353 41.7634 208.223 41.0283 208.726 40.3318C209.229 39.5966 209.481 38.8614 209.481 38.1262C209.481 37.1202 209.133 36.3076 208.436 35.6885C207.778 35.0694 206.792 34.7599 205.476 34.7599C204.083 34.7599 203 35.1081 202.226 35.8046C201.452 36.5011 201.065 37.391 201.065 38.4745C201.065 39.0549 201.181 39.6353 201.413 40.2157C201.645 40.7574 202.09 41.3958 202.748 42.131C203.406 42.8275 204.335 43.7368 205.534 44.8589L226.951 64.7088L222.018 70.4548L198.395 48.5155C197.041 47.2773 195.957 46.1165 195.145 45.033C194.332 43.9496 193.732 42.8855 193.346 41.8408C192.997 40.7961 192.823 39.7127 192.823 38.5906C192.823 36.6172 193.346 34.876 194.39 33.3669C195.435 31.8579 196.905 30.697 198.801 29.8845C200.697 29.0332 202.922 28.6076 205.476 28.6076C207.836 28.6076 209.868 28.9945 211.57 29.7684C213.311 30.5036 214.666 31.5677 215.633 32.9606C216.639 34.3536 217.142 36.0174 217.142 37.9521C217.142 39.6546 216.716 41.2217 215.865 42.6534C215.014 44.0464 213.679 45.3619 211.86 46.6001C210.081 47.8383 207.74 49.0959 204.838 50.3728C202.864 51.2627 201.297 52.1333 200.136 52.9846C199.014 53.7972 198.202 54.6291 197.699 55.4803C197.196 56.3316 196.944 57.2796 196.944 58.3243C196.944 59.2917 197.234 60.1623 197.815 60.9361C198.434 61.71 199.285 62.3098 200.368 62.7354C201.452 63.161 202.729 63.3738 204.199 63.3738C206.559 63.3738 208.726 62.8321 210.7 61.7487C212.673 60.6266 214.337 58.9821 215.691 56.8153C217.084 54.6097 218.071 51.9399 218.651 48.8057L225.906 51.0693C225.094 55.016 223.643 58.4404 221.553 61.3424C219.464 64.2445 216.891 66.4887 213.834 68.0751C210.777 69.6616 207.353 70.4548 203.561 70.4548Z" fill="black"/>
<path d="M38.1135 122.122C33.8186 122.122 29.9927 121.258 26.6358 119.53C23.2789 117.753 20.6378 115.31 18.7125 112.2C16.8366 109.089 15.8986 105.56 15.8986 101.61C15.8986 97.6118 16.8366 94.0821 18.7125 91.0214C20.6378 87.9113 23.2789 85.4924 26.6358 83.7646C29.9927 81.9874 33.8186 81.0988 38.1135 81.0988C42.3096 81.0988 45.9627 81.9874 49.0728 83.7646C52.1829 85.4924 54.4784 87.9854 55.9594 91.2436L46.9994 96.0568C45.9627 94.1809 44.6545 92.7986 43.0748 91.91C41.5444 91.0214 39.866 90.5771 38.0394 90.5771C36.0648 90.5771 34.2876 91.0214 32.7079 91.91C31.1281 92.7986 29.8693 94.0574 28.9313 95.6865C28.0427 97.3156 27.5984 99.2903 27.5984 101.61C27.5984 103.931 28.0427 105.905 28.9313 107.534C29.8693 109.164 31.1281 110.422 32.7079 111.311C34.2876 112.2 36.0648 112.644 38.0394 112.644C39.866 112.644 41.5444 112.224 43.0748 111.385C44.6545 110.496 45.9627 109.089 46.9994 107.164L55.9594 112.051C54.4784 115.26 52.1829 117.753 49.0728 119.53C45.9627 121.258 42.3096 122.122 38.1135 122.122ZM81.8015 122.122C77.556 122.122 73.7795 121.234 70.4719 119.456C67.2137 117.679 64.622 115.26 62.6967 112.2C60.8208 109.089 59.8828 105.56 59.8828 101.61C59.8828 97.6118 60.8208 94.0821 62.6967 91.0214C64.622 87.9113 67.2137 85.4924 70.4719 83.7646C73.7795 81.9874 77.556 81.0988 81.8015 81.0988C85.9976 81.0988 89.7495 81.9874 93.057 83.7646C96.3645 85.4924 98.9563 87.8866 100.832 90.9474C102.708 94.0081 103.646 97.5624 103.646 101.61C103.646 105.56 102.708 109.089 100.832 112.2C98.9563 115.26 96.3645 117.679 93.057 119.456C89.7495 121.234 85.9976 122.122 81.8015 122.122ZM81.8015 112.644C83.7268 112.644 85.4546 112.2 86.9849 111.311C88.5153 110.422 89.7248 109.164 90.6134 107.534C91.502 105.856 91.9463 103.881 91.9463 101.61C91.9463 99.2903 91.502 97.3156 90.6134 95.6865C89.7248 94.0574 88.5153 92.7986 86.9849 91.91C85.4546 91.0214 83.7268 90.5771 81.8015 90.5771C79.8762 90.5771 78.1484 91.0214 76.618 91.91C75.0877 92.7986 73.8535 94.0574 72.9156 95.6865C72.027 97.3156 71.5827 99.2903 71.5827 101.61C71.5827 103.881 72.027 105.856 72.9155 107.534C73.8535 109.164 75.0877 110.422 76.618 111.311C78.1484 112.2 79.8762 112.644 81.8015 112.644ZM129.213 122.122C125.462 122.122 122.08 121.283 119.069 119.604C116.057 117.877 113.663 115.482 111.886 112.422C110.158 109.361 109.294 105.757 109.294 101.61C109.294 97.4143 110.158 93.7859 111.886 90.7252C113.663 87.6645 116.057 85.2949 119.069 83.6165C122.08 81.938 125.462 81.0988 129.213 81.0988C132.57 81.0988 135.508 81.8393 138.025 83.3203C140.543 84.8013 142.493 87.0474 143.875 90.0588C145.257 93.0701 145.949 96.9207 145.949 101.61C145.949 106.251 145.282 110.101 143.949 113.162C142.616 116.174 140.691 118.42 138.173 119.901C135.705 121.382 132.718 122.122 129.213 122.122ZM131.213 112.644C133.089 112.644 134.792 112.2 136.322 111.311C137.852 110.422 139.062 109.164 139.951 107.534C140.889 105.856 141.357 103.881 141.357 101.61C141.357 99.2903 140.889 97.3156 139.951 95.6865C139.062 94.0574 137.852 92.7986 136.322 91.91C134.792 91.0214 133.089 90.5771 131.213 90.5771C129.287 90.5771 127.56 91.0214 126.029 91.91C124.499 92.7986 123.265 94.0574 122.327 95.6865C121.438 97.3156 120.994 99.2903 120.994 101.61C120.994 103.881 121.438 105.856 122.327 107.534C123.265 109.164 124.499 110.422 126.029 111.311C127.56 112.2 129.287 112.644 131.213 112.644ZM141.654 121.53L141.654 113.384L141.876 101.536L141.135 89.7626L141.135 66.5851H152.687L152.687 121.53H141.654ZM183.89 122.122C179.349 122.122 175.35 121.234 171.894 119.456C168.488 117.679 165.847 115.26 163.971 112.2C162.095 109.089 161.157 105.56 161.157 101.61C161.157 97.6118 162.07 94.0821 163.897 91.0214C165.773 87.9113 168.315 85.4924 171.524 83.7646C174.733 81.9874 178.361 81.0988 182.409 81.0988C186.309 81.0988 189.814 81.938 192.924 83.6165C196.084 85.2456 198.577 87.6151 200.403 90.7252C202.23 93.7859 203.143 97.4637 203.143 101.759C203.143 102.203 203.118 102.721 203.069 103.314C203.02 103.857 202.97 104.375 202.921 104.869H170.561L170.561 98.1302H196.849L192.406 100.129C192.406 98.0561 191.986 96.2542 191.147 94.7239C190.308 93.1935 189.148 92.0087 187.667 91.1695C186.186 90.2809 184.458 89.8366 182.483 89.8366C180.509 89.8366 178.756 90.2809 177.226 91.1695C175.745 92.0087 174.585 93.2182 173.745 94.7979C172.906 96.3283 172.487 98.1548 172.487 100.278L172.487 102.055C172.487 104.227 172.956 106.152 173.894 107.831C174.881 109.46 176.238 110.719 177.966 111.607C179.743 112.446 181.817 112.866 184.186 112.866C186.309 112.866 188.16 112.545 189.74 111.903C191.369 111.262 192.85 110.299 194.183 109.015L200.329 115.68C198.503 117.753 196.207 119.358 193.443 120.493C190.678 121.579 187.494 122.122 183.89 122.122ZM224.977 122.122C221.571 122.122 218.288 121.727 215.129 120.937C212.019 120.098 209.55 119.061 207.724 117.827L211.574 109.534C213.401 110.669 215.548 111.607 218.017 112.348C220.534 113.039 223.003 113.384 225.422 113.384C228.087 113.384 229.963 113.063 231.049 112.422C232.185 111.78 232.752 110.891 232.752 109.756C232.752 108.818 232.308 108.127 231.42 107.683C230.58 107.189 229.445 106.819 228.013 106.572C226.582 106.325 225.002 106.078 223.274 105.831C221.596 105.584 219.893 105.264 218.165 104.869C216.437 104.424 214.857 103.783 213.426 102.943C211.994 102.104 210.834 100.969 209.945 99.5371C209.106 98.1055 208.686 96.2542 208.686 93.9834C208.686 91.4657 209.402 89.2442 210.834 87.3189C212.315 85.3936 214.438 83.888 217.202 82.8019C219.967 81.6665 223.274 81.0988 227.125 81.0988C229.84 81.0988 232.604 81.395 235.418 81.9874C238.232 82.5798 240.577 83.4437 242.453 84.5791L238.602 92.7986C236.677 91.6632 234.727 90.898 232.752 90.5031C230.827 90.0588 228.951 89.8366 227.125 89.8366C224.558 89.8366 222.682 90.1822 221.497 90.8733C220.312 91.5644 219.72 92.453 219.72 93.5391C219.72 94.5264 220.139 95.2669 220.979 95.7606C221.867 96.2542 223.027 96.6492 224.459 96.9454C225.891 97.2416 227.446 97.5131 229.124 97.7599C230.852 97.9574 232.58 98.2783 234.307 98.7226C236.035 99.1668 237.59 99.8086 238.973 100.648C240.404 101.438 241.564 102.548 242.453 103.98C243.342 105.362 243.786 107.189 243.786 109.46C243.786 111.928 243.045 114.125 241.564 116.05C240.083 117.926 237.936 119.407 235.122 120.493C232.358 121.579 228.976 122.122 224.977 122.122Z" fill="black"/>
</svg>
