<svg width="687" height="592" viewBox="0 0 687 592" fill="none" xmlns="http://www.w3.org/2000/svg">
<path d="M375.279 273.569H477.555C477.555 294.507 474.602 316.251 468.696 338.8C462.791 361.349 455.006 383.092 445.342 404.03C436.215 424.432 425.209 442.954 412.324 459.598C386.017 492.884 357.025 518.118 325.349 535.298C294.21 551.941 261.192 560.263 226.295 560.263C186.029 560.263 151.132 553.015 121.603 538.519C92.075 524.023 68.9891 503.622 52.3458 477.315C36.2394 450.471 28.1862 419.063 28.1862 383.092C28.1862 359.469 33.555 337.457 44.2926 317.056C55.0302 296.118 70.0629 277.595 89.3906 261.489C108.718 244.845 131.536 231.155 157.843 220.417L217.437 290.48C201.33 293.702 186.834 299.339 173.949 307.392C161.601 314.908 151.937 324.572 144.958 336.384C138.515 348.195 135.294 361.617 135.294 376.65C135.294 393.83 138.784 409.399 145.763 423.358C153.279 437.317 164.554 448.592 179.586 457.182C194.619 465.235 212.873 469.261 234.348 469.261C259.045 469.261 281.594 463.087 301.995 450.739C322.397 437.854 338.503 420.137 350.314 397.588C357.831 384.166 363.736 366.18 368.031 343.631C372.326 320.546 374.742 297.191 375.279 273.569ZM264.145 237.329L557.282 553.015H419.572L151.4 267.126C139.052 253.704 128.851 240.819 120.798 228.471C113.282 215.586 107.376 202.432 103.081 189.01C98.786 175.051 96.6384 160.555 96.6384 145.523C96.6384 117.605 103.886 92.9084 118.382 71.4331C133.415 49.4211 153.816 32.2409 179.586 19.8926C205.357 7.00751 234.348 0.564955 266.561 0.564955C299.311 0.564955 327.765 6.73908 351.925 19.0873C376.622 31.4356 395.949 48.6157 409.908 70.6278C423.867 92.6399 430.846 118.41 430.846 147.939H326.96C325.886 135.053 322.665 124.584 317.296 116.531C311.927 107.941 304.68 101.498 295.553 97.2034C286.963 92.3715 277.299 89.9555 266.561 89.9555C256.36 89.9555 246.965 92.3715 238.375 97.2034C229.785 101.498 223.074 107.941 218.242 116.531C213.947 125.121 211.799 135.053 211.799 146.328C211.799 155.992 213.678 165.387 217.437 174.514C221.195 183.641 226.832 193.305 234.348 203.506C242.401 213.17 252.334 224.444 264.145 237.329Z" fill="#151515"/>
<path d="M191.196 34.0288L183.073 37.6029V36.6119L190.026 33.5739L183.073 30.536V29.545L191.196 33.1191V34.0288ZM201.921 34.0288L193.798 37.6029V36.6119L200.751 33.5739L193.798 30.536V29.545L201.921 33.1191V34.0288ZM212.645 34.0288L204.523 37.6029V36.6119L211.476 33.5739L204.523 30.536V29.545L212.645 33.1191V34.0288ZM219.715 34.0126V39H218.577V30.4385H219.633V32.0468C219.915 31.527 220.299 31.1046 220.787 30.7797C221.285 30.4439 221.843 30.2761 222.46 30.2761C223.348 30.2761 224.058 30.5522 224.588 31.1046C225.13 31.6569 225.401 32.4367 225.401 33.444V39H224.263V33.8339C224.263 33.0108 224.079 32.3772 223.711 31.9331C223.354 31.4891 222.823 31.2671 222.119 31.2671C221.675 31.2671 221.269 31.3862 220.901 31.6245C220.532 31.8519 220.24 32.1714 220.023 32.583C219.817 32.9945 219.715 33.4711 219.715 34.0126ZM235.642 34.7111C235.642 35.5884 235.485 36.3628 235.17 37.0343C234.867 37.7058 234.434 38.231 233.871 38.6101C233.318 38.9783 232.658 39.1625 231.889 39.1625C231.25 39.1625 230.67 38.9946 230.151 38.6588C229.631 38.3231 229.225 37.852 228.932 37.2455V42.1354H227.795V30.4385H228.851V32.2905C229.143 31.6515 229.56 31.1587 230.102 30.8122C230.643 30.4548 231.239 30.2761 231.889 30.2761C232.647 30.2761 233.308 30.4656 233.871 30.8447C234.434 31.2129 234.867 31.7328 235.17 32.4042C235.485 33.0649 235.642 33.8339 235.642 34.7111ZM234.488 34.7111C234.488 33.6281 234.228 32.7833 233.708 32.1768C233.199 31.5703 232.528 31.2671 231.694 31.2671C231.174 31.2671 230.703 31.4024 230.281 31.6732C229.858 31.944 229.522 32.3339 229.273 32.8429C229.035 33.3519 228.916 33.9747 228.916 34.7111C228.916 35.4151 229.035 36.027 229.273 36.5469C229.512 37.0668 229.842 37.4675 230.264 37.7491C230.687 38.0307 231.163 38.1715 231.694 38.1715C232.528 38.1715 233.199 37.8682 233.708 37.2617C234.228 36.6552 234.488 35.805 234.488 34.7111ZM238.61 39H237.473V30.4385H238.529V32.0468C238.821 31.4945 239.205 31.0613 239.682 30.7472C240.169 30.4331 240.716 30.2761 241.323 30.2761C241.994 30.2761 242.563 30.4494 243.029 30.7959C243.505 31.1425 243.83 31.6299 244.003 32.258C244.263 31.6515 244.653 31.1696 245.173 30.8122C245.693 30.4548 246.289 30.2761 246.96 30.2761C247.848 30.2761 248.547 30.5577 249.056 31.1208C249.576 31.6732 249.836 32.4476 249.836 33.444V39H248.715V33.8176C248.715 32.9945 248.53 32.3663 248.162 31.9331C247.805 31.4891 247.28 31.2671 246.586 31.2671C246.153 31.2671 245.758 31.3862 245.4 31.6245C245.043 31.8519 244.756 32.1714 244.539 32.583C244.334 32.9837 244.231 33.4494 244.231 33.9801V39H243.094V33.8176C243.094 32.9945 242.915 32.3663 242.557 31.9331C242.2 31.4891 241.669 31.2671 240.965 31.2671C240.532 31.2671 240.131 31.3862 239.763 31.6245C239.406 31.8519 239.124 32.1714 238.918 32.583C238.713 32.9837 238.61 33.4494 238.61 33.9801V39ZM256.759 39H255.622V30.4385H256.759V39ZM257.1 28.4565C257.1 28.7056 257.014 28.9114 256.84 29.0739C256.678 29.2363 256.456 29.3176 256.174 29.3176C255.914 29.3176 255.698 29.2363 255.525 29.0739C255.351 28.9114 255.265 28.7056 255.265 28.4565C255.265 28.2074 255.351 28.0071 255.525 27.8555C255.698 27.693 255.914 27.6118 256.174 27.6118C256.456 27.6118 256.678 27.693 256.84 27.8555C257.014 28.0071 257.1 28.2074 257.1 28.4565ZM260.361 34.0126V39H259.223V30.4385H260.279V32.0468C260.561 31.527 260.945 31.1046 261.433 30.7797C261.931 30.4439 262.489 30.2761 263.106 30.2761C263.994 30.2761 264.704 30.5522 265.234 31.1046C265.776 31.6569 266.047 32.4367 266.047 33.444V39H264.909V33.8339C264.909 33.0108 264.725 32.3772 264.357 31.9331C264 31.4891 263.469 31.2671 262.765 31.2671C262.321 31.2671 261.915 31.3862 261.546 31.6245C261.178 31.8519 260.886 32.1714 260.669 32.583C260.463 32.9945 260.361 33.4711 260.361 34.0126ZM274.842 36.6119C274.842 37.4025 274.544 38.0253 273.948 38.4801C273.353 38.935 272.524 39.1625 271.463 39.1625C270.401 39.1625 269.556 38.9079 268.928 38.3989C268.311 37.8899 267.959 37.1967 267.872 36.3195H268.961C268.993 36.926 269.237 37.4079 269.692 37.7653C270.147 38.1227 270.737 38.3014 271.463 38.3014C272.167 38.3014 272.714 38.1715 273.103 37.9115C273.504 37.6516 273.704 37.278 273.704 36.7906C273.704 36.3682 273.569 36.0487 273.298 35.8321C273.028 35.6047 272.567 35.4259 271.917 35.296L270.683 35.0523C269.871 34.9007 269.253 34.6299 268.831 34.24C268.408 33.8393 268.197 33.3303 268.197 32.7129C268.197 32.2364 268.327 31.814 268.587 31.4458C268.858 31.0775 269.226 30.7905 269.692 30.5847C270.168 30.379 270.715 30.2761 271.333 30.2761C271.993 30.2761 272.567 30.3898 273.055 30.6172C273.553 30.8338 273.948 31.1479 274.241 31.5595C274.533 31.971 274.695 32.4638 274.728 33.0378H273.656C273.602 32.4422 273.369 31.9819 272.957 31.6569C272.546 31.3212 272.004 31.1533 271.333 31.1533C270.726 31.1533 270.233 31.2833 269.854 31.5432C269.486 31.8032 269.302 32.1606 269.302 32.6154C269.302 33.0378 269.437 33.3627 269.708 33.5902C269.99 33.8176 270.45 33.9909 271.089 34.11L272.372 34.3537C273.217 34.5162 273.84 34.7815 274.241 35.1498C274.641 35.518 274.842 36.0054 274.842 36.6119ZM281.157 37.9115V38.9188C280.94 39.0162 280.734 39.0812 280.539 39.1137C280.344 39.1462 280.139 39.1625 279.922 39.1625C279.456 39.1625 279.034 39.0758 278.655 38.9025C278.276 38.7292 277.973 38.4531 277.745 38.074C277.528 37.6949 277.42 37.1967 277.42 36.5794V31.397H275.406V30.4385H277.42V27.9042H278.557V30.4385H281.238V31.397H278.557V36.3357C278.557 37.0072 278.704 37.4729 278.996 37.7328C279.299 37.9928 279.684 38.1227 280.149 38.1227C280.334 38.1227 280.501 38.1065 280.653 38.074C280.816 38.0415 280.983 37.9874 281.157 37.9115ZM288.221 39V37.4404C287.972 37.9711 287.598 38.3935 287.1 38.7076C286.602 39.0108 286.017 39.1625 285.345 39.1625C284.457 39.1625 283.748 38.935 283.217 38.4801C282.687 38.0144 282.421 37.3971 282.421 36.6281C282.421 35.7942 282.752 35.166 283.412 34.7436C284.073 34.3104 285.053 34.0938 286.353 34.0938C286.613 34.0938 286.867 34.0992 287.116 34.11C287.365 34.1209 287.696 34.148 288.107 34.1913V33.4602C288.107 32.7454 287.923 32.1876 287.555 31.7869C287.197 31.3862 286.694 31.1858 286.044 31.1858C285.351 31.1858 284.798 31.3916 284.387 31.8032C283.975 32.2039 283.764 32.7508 283.753 33.444H282.714C282.724 32.805 282.871 32.2526 283.152 31.7869C283.434 31.3104 283.818 30.9421 284.306 30.6822C284.804 30.4114 285.378 30.2761 286.028 30.2761C287.035 30.2761 287.815 30.5522 288.367 31.1046C288.919 31.6569 289.196 32.4313 289.196 33.4277V39H288.221ZM283.51 36.5956C283.51 37.1155 283.694 37.5379 284.062 37.8628C284.43 38.1769 284.912 38.3339 285.508 38.3339C286.309 38.3339 286.943 38.0957 287.409 37.6191C287.874 37.1317 288.107 36.4873 288.107 35.6859V34.9223C287.739 34.8898 287.419 34.8682 287.149 34.8573C286.889 34.8465 286.64 34.8411 286.401 34.8411C285.437 34.8411 284.712 34.9873 284.224 35.2797C283.748 35.5613 283.51 36 283.51 36.5956ZM292.725 39H291.588V27.3356H292.725V39ZM296.326 39H295.189V27.3356H296.326V39ZM305.548 39.1625C304.747 39.1625 304.043 38.9783 303.437 38.6101C302.841 38.231 302.375 37.7003 302.039 37.018C301.714 36.3357 301.552 35.5451 301.552 34.6462C301.552 33.8122 301.72 33.0703 302.056 32.4205C302.402 31.7598 302.868 31.24 303.453 30.8609C304.048 30.471 304.725 30.2761 305.483 30.2761C306.09 30.2761 306.637 30.3952 307.124 30.6335C307.622 30.8609 308.039 31.1858 308.375 31.6082C308.722 32.0306 308.976 32.5288 309.139 33.1028C309.312 33.666 309.372 34.2942 309.317 34.9873H302.169V34.2075H308.132C308.088 33.2436 307.828 32.4963 307.352 31.9656C306.886 31.4241 306.258 31.1533 305.467 31.1533C304.915 31.1533 304.427 31.2995 304.005 31.592C303.594 31.8736 303.269 32.2743 303.03 32.7941C302.792 33.314 302.673 33.9313 302.673 34.6462C302.673 35.3826 302.787 36.027 303.014 36.5794C303.242 37.1209 303.566 37.5379 303.989 37.8303C304.422 38.1227 304.937 38.2689 305.532 38.2689C306.247 38.2689 306.837 38.0794 307.303 37.7003C307.78 37.3104 308.088 36.7798 308.229 36.1083H309.35C309.155 37.0505 308.716 37.7978 308.034 38.3502C307.363 38.8917 306.534 39.1625 305.548 39.1625ZM311.091 39H309.824L312.975 34.6137L310.019 30.4385H311.318L313.739 33.8989L316.176 30.4385H317.394L314.47 34.6462L317.589 39H316.289L313.674 35.3285L311.091 39ZM321.87 39.1787C321.112 39.1787 320.445 38.9892 319.871 38.6101C319.297 38.231 318.848 37.7058 318.523 37.0343C318.198 36.3628 318.036 35.5884 318.036 34.7111C318.036 33.8447 318.198 33.0812 318.523 32.4205C318.848 31.749 319.297 31.2237 319.871 30.8447C320.456 30.4656 321.122 30.2761 321.87 30.2761C322.53 30.2761 323.126 30.4169 323.657 30.6985C324.187 30.98 324.621 31.3808 324.956 31.9006C325.303 32.4205 325.53 33.0378 325.639 33.7526H324.485C324.355 32.9728 324.057 32.3663 323.592 31.9331C323.137 31.4891 322.563 31.2671 321.87 31.2671C321.339 31.2671 320.868 31.4133 320.456 31.7057C320.056 31.9981 319.741 32.3988 319.514 32.9079C319.297 33.4169 319.189 34.018 319.189 34.7111C319.189 35.4043 319.297 36.0162 319.514 36.5469C319.741 37.0668 320.056 37.4729 320.456 37.7653C320.868 38.0469 321.339 38.1877 321.87 38.1877C322.574 38.1877 323.153 37.9711 323.608 37.5379C324.063 37.0938 324.355 36.4765 324.485 35.6859H325.639C325.541 36.4115 325.319 37.0343 324.973 37.5541C324.637 38.074 324.204 38.4747 323.673 38.7563C323.142 39.0379 322.541 39.1787 321.87 39.1787ZM330.71 39.1625C329.909 39.1625 329.205 38.9783 328.598 38.6101C328.003 38.231 327.537 37.7003 327.201 37.018C326.876 36.3357 326.714 35.5451 326.714 34.6462C326.714 33.8122 326.882 33.0703 327.217 32.4205C327.564 31.7598 328.03 31.24 328.615 30.8609C329.21 30.471 329.887 30.2761 330.645 30.2761C331.252 30.2761 331.799 30.3952 332.286 30.6335C332.784 30.8609 333.201 31.1858 333.537 31.6082C333.884 32.0306 334.138 32.5288 334.301 33.1028C334.474 33.666 334.533 34.2942 334.479 34.9873H327.331V34.2075H333.293C333.25 33.2436 332.99 32.4963 332.514 31.9656C332.048 31.4241 331.42 31.1533 330.629 31.1533C330.077 31.1533 329.589 31.2995 329.167 31.592C328.755 31.8736 328.43 32.2743 328.192 32.7941C327.954 33.314 327.835 33.9313 327.835 34.6462C327.835 35.3826 327.948 36.027 328.176 36.5794C328.403 37.1209 328.728 37.5379 329.151 37.8303C329.584 38.1227 330.098 38.2689 330.694 38.2689C331.409 38.2689 331.999 38.0794 332.465 37.7003C332.941 37.3104 333.25 36.7798 333.391 36.1083H334.512C334.317 37.0505 333.878 37.7978 333.196 38.3502C332.524 38.8917 331.696 39.1625 330.71 39.1625ZM337.496 39H336.359V27.3356H337.496V39ZM341.097 39H339.96V27.3356H341.097V39ZM346.924 39.1625C346.123 39.1625 345.419 38.9783 344.812 38.6101C344.217 38.231 343.751 37.7003 343.415 37.018C343.09 36.3357 342.928 35.5451 342.928 34.6462C342.928 33.8122 343.096 33.0703 343.431 32.4205C343.778 31.7598 344.244 31.24 344.828 30.8609C345.424 30.471 346.101 30.2761 346.859 30.2761C347.466 30.2761 348.013 30.3952 348.5 30.6335C348.998 30.8609 349.415 31.1858 349.751 31.6082C350.098 32.0306 350.352 32.5288 350.514 33.1028C350.688 33.666 350.747 34.2942 350.693 34.9873H343.545V34.2075H349.507C349.464 33.2436 349.204 32.4963 348.727 31.9656C348.262 31.4241 347.634 31.1533 346.843 31.1533C346.291 31.1533 345.803 31.2995 345.381 31.592C344.969 31.8736 344.644 32.2743 344.406 32.7941C344.168 33.314 344.049 33.9313 344.049 34.6462C344.049 35.3826 344.162 36.027 344.39 36.5794C344.617 37.1209 344.942 37.5379 345.365 37.8303C345.798 38.1227 346.312 38.2689 346.908 38.2689C347.623 38.2689 348.213 38.0794 348.679 37.7003C349.155 37.3104 349.464 36.7798 349.605 36.1083H350.726C350.531 37.0505 350.092 37.7978 349.41 38.3502C348.738 38.8917 347.91 39.1625 346.924 39.1625ZM353.71 34.0126V39H352.573V30.4385H353.629V32.0468C353.91 31.527 354.295 31.1046 354.782 30.7797C355.28 30.4439 355.838 30.2761 356.455 30.2761C357.343 30.2761 358.053 30.5522 358.584 31.1046C359.125 31.6569 359.396 32.4367 359.396 33.444V39H358.259V33.8339C358.259 33.0108 358.074 32.3772 357.706 31.9331C357.349 31.4891 356.818 31.2671 356.114 31.2671C355.67 31.2671 355.264 31.3862 354.896 31.6245C354.528 31.8519 354.235 32.1714 354.018 32.583C353.813 32.9945 353.71 33.4711 353.71 34.0126ZM364.991 39.1787C364.232 39.1787 363.566 38.9892 362.992 38.6101C362.418 38.231 361.969 37.7058 361.644 37.0343C361.319 36.3628 361.157 35.5884 361.157 34.7111C361.157 33.8447 361.319 33.0812 361.644 32.4205C361.969 31.749 362.418 31.2237 362.992 30.8447C363.577 30.4656 364.243 30.2761 364.991 30.2761C365.651 30.2761 366.247 30.4169 366.778 30.6985C367.308 30.98 367.741 31.3808 368.077 31.9006C368.424 32.4205 368.651 33.0378 368.76 33.7526H367.606C367.476 32.9728 367.178 32.3663 366.713 31.9331C366.258 31.4891 365.684 31.2671 364.991 31.2671C364.46 31.2671 363.989 31.4133 363.577 31.7057C363.176 31.9981 362.862 32.3988 362.635 32.9079C362.418 33.4169 362.31 34.018 362.31 34.7111C362.31 35.4043 362.418 36.0162 362.635 36.5469C362.862 37.0668 363.176 37.4729 363.577 37.7653C363.989 38.0469 364.46 38.1877 364.991 38.1877C365.695 38.1877 366.274 37.9711 366.729 37.5379C367.184 37.0938 367.476 36.4765 367.606 35.6859H368.76C368.662 36.4115 368.44 37.0343 368.093 37.5541C367.758 38.074 367.325 38.4747 366.794 38.7563C366.263 39.0379 365.662 39.1787 364.991 39.1787ZM373.831 39.1625C373.03 39.1625 372.326 38.9783 371.719 38.6101C371.123 38.231 370.658 37.7003 370.322 37.018C369.997 36.3357 369.835 35.5451 369.835 34.6462C369.835 33.8122 370.003 33.0703 370.338 32.4205C370.685 31.7598 371.151 31.24 371.735 30.8609C372.331 30.471 373.008 30.2761 373.766 30.2761C374.373 30.2761 374.92 30.3952 375.407 30.6335C375.905 30.8609 376.322 31.1858 376.658 31.6082C377.004 32.0306 377.259 32.5288 377.421 33.1028C377.595 33.666 377.654 34.2942 377.6 34.9873H370.452V34.2075H376.414C376.371 33.2436 376.111 32.4963 375.634 31.9656C375.169 31.4241 374.541 31.1533 373.75 31.1533C373.198 31.1533 372.71 31.2995 372.288 31.592C371.876 31.8736 371.551 32.2743 371.313 32.7941C371.075 33.314 370.956 33.9313 370.956 34.6462C370.956 35.3826 371.069 36.027 371.297 36.5794C371.524 37.1209 371.849 37.5379 372.272 37.8303C372.705 38.1227 373.219 38.2689 373.815 38.2689C374.53 38.2689 375.12 38.0794 375.586 37.7003C376.062 37.3104 376.371 36.7798 376.512 36.1083H377.633C377.438 37.0505 376.999 37.7978 376.317 38.3502C375.645 38.8917 374.817 39.1625 373.831 39.1625Z" fill="url(#paint0_linear_14_10)"/>
<path d="M191.196 62.2774L183.073 65.8515V64.8605L190.026 61.8225L183.073 58.7846V57.7936L191.196 61.3677V62.2774ZM201.921 62.2774L193.798 65.8515V64.8605L200.751 61.8225L193.798 58.7846V57.7936L201.921 61.3677V62.2774ZM212.645 62.2774L204.523 65.8515V64.8605L211.476 61.8225L204.523 58.7846V57.7936L212.645 61.3677V62.2774ZM219.698 58.6871V68.0609C219.698 68.6024 219.601 69.0573 219.406 69.4255C219.211 69.8046 218.935 70.0862 218.577 70.2703C218.231 70.4544 217.814 70.5465 217.326 70.5465C217.175 70.5465 217.007 70.5356 216.823 70.514C216.639 70.5031 216.455 70.4598 216.271 70.384V69.3443C216.422 69.3984 216.574 69.4363 216.725 69.458C216.866 69.4905 217.029 69.5067 217.213 69.5067C217.624 69.5067 217.955 69.3876 218.204 69.1493C218.453 68.9219 218.577 68.5537 218.577 68.0446V58.6871H219.698ZM220.072 56.7051C220.072 56.9542 219.985 57.16 219.812 57.3225C219.639 57.4849 219.417 57.5662 219.146 57.5662C218.875 57.5662 218.653 57.4849 218.48 57.3225C218.307 57.16 218.22 56.9542 218.22 56.7051C218.22 56.456 218.307 56.2557 218.48 56.1041C218.653 55.9416 218.875 55.8604 219.146 55.8604C219.417 55.8604 219.639 55.9416 219.812 56.1041C219.985 56.2557 220.072 56.456 220.072 56.7051ZM225.591 67.4111C225.006 67.4111 224.464 67.3027 223.966 67.0861C223.468 66.8695 223.035 66.5609 222.666 66.1601C222.309 65.7594 222.027 65.2883 221.822 64.7468C221.627 64.2052 221.529 63.6096 221.529 62.9597C221.529 62.3207 221.627 61.7305 221.822 61.189C222.027 60.6474 222.309 60.1817 222.666 59.7918C223.035 59.3911 223.468 59.0824 223.966 58.8658C224.464 58.6492 225.006 58.5409 225.591 58.5409C226.186 58.5409 226.733 58.6492 227.232 58.8658C227.73 59.0824 228.158 59.3911 228.515 59.7918C228.883 60.1817 229.165 60.6474 229.36 61.189C229.565 61.7305 229.668 62.3207 229.668 62.9597C229.668 63.6096 229.565 64.2052 229.36 64.7468C229.165 65.2883 228.883 65.7594 228.515 66.1601C228.158 66.5609 227.73 66.8695 227.232 67.0861C226.733 67.3027 226.186 67.4111 225.591 67.4111ZM225.591 66.4363C226.154 66.4363 226.652 66.2955 227.085 66.0139C227.529 65.7215 227.876 65.3154 228.125 64.7955C228.385 64.2756 228.515 63.6637 228.515 62.9597C228.515 62.2558 228.385 61.6492 228.125 61.1402C227.876 60.6312 227.529 60.2359 227.085 59.9543C226.652 59.6727 226.154 59.5319 225.591 59.5319C225.038 59.5319 224.54 59.6727 224.096 59.9543C223.663 60.2359 223.316 60.6312 223.056 61.1402C222.807 61.6492 222.683 62.2558 222.683 62.9597C222.683 63.6637 222.807 64.2756 223.056 64.7955C223.316 65.3154 223.663 65.7215 224.096 66.0139C224.54 66.2955 225.038 66.4363 225.591 66.4363ZM232.645 67.2486H231.507V58.6871H232.645V67.2486ZM232.986 56.7051C232.986 56.9542 232.899 57.16 232.726 57.3225C232.563 57.4849 232.341 57.5662 232.06 57.5662C231.8 57.5662 231.583 57.4849 231.41 57.3225C231.237 57.16 231.15 56.9542 231.15 56.7051C231.15 56.456 231.237 56.2557 231.41 56.1041C231.583 55.9416 231.8 55.8604 232.06 55.8604C232.341 55.8604 232.563 55.9416 232.726 56.1041C232.899 56.2557 232.986 56.456 232.986 56.7051ZM236.246 62.2612V67.2486H235.109V58.6871H236.165V60.2954C236.446 59.7756 236.831 59.3532 237.318 59.0283C237.816 58.6925 238.374 58.5247 238.991 58.5247C239.879 58.5247 240.589 58.8008 241.12 59.3532C241.661 59.9055 241.932 60.6853 241.932 61.6926V67.2486H240.795V62.0825C240.795 61.2594 240.611 60.6258 240.242 60.1817C239.885 59.7377 239.354 59.5156 238.65 59.5156C238.206 59.5156 237.8 59.6348 237.432 59.8731C237.064 60.1005 236.771 60.42 236.555 60.8315C236.349 61.2431 236.246 61.7196 236.246 62.2612ZM253.196 63.8045V58.6871H254.317V67.2486H253.261V65.7053C253.044 66.2035 252.692 66.615 252.205 66.9399C251.718 67.254 251.16 67.4111 250.532 67.4111C249.958 67.4111 249.449 67.3027 249.005 67.0861C248.571 66.8587 248.236 66.5121 247.997 66.0464C247.759 65.5699 247.64 64.9742 247.64 64.2594V58.6871H248.777V64.0157C248.777 64.8821 248.972 65.5049 249.362 65.884C249.752 66.2522 250.245 66.4363 250.84 66.4363C251.295 66.4363 251.696 66.3226 252.043 66.0952C252.4 65.8677 252.682 65.5536 252.887 65.1529C253.093 64.7522 253.196 64.3027 253.196 63.8045ZM263.181 64.8605C263.181 65.6511 262.883 66.2739 262.287 66.7287C261.692 67.1836 260.863 67.4111 259.802 67.4111C258.74 67.4111 257.896 67.1565 257.268 66.6475C256.65 66.1385 256.298 65.4453 256.212 64.5681H257.3C257.333 65.1746 257.576 65.6565 258.031 66.0139C258.486 66.3713 259.076 66.55 259.802 66.55C260.506 66.55 261.053 66.4201 261.443 66.1601C261.843 65.9002 262.044 65.5266 262.044 65.0392C262.044 64.6168 261.908 64.2973 261.638 64.0807C261.367 63.8532 260.907 63.6745 260.257 63.5446L259.022 63.3009C258.21 63.1493 257.592 62.8785 257.17 62.4886C256.748 62.0879 256.536 61.5789 256.536 60.9615C256.536 60.485 256.666 60.0626 256.926 59.6944C257.197 59.3261 257.565 59.0391 258.031 58.8333C258.508 58.6276 259.055 58.5247 259.672 58.5247C260.333 58.5247 260.907 58.6384 261.394 58.8658C261.892 59.0824 262.287 59.3965 262.58 59.8081C262.872 60.2196 263.035 60.7124 263.067 61.2864H261.995C261.941 60.6908 261.708 60.2305 261.296 59.9055C260.885 59.5698 260.343 59.4019 259.672 59.4019C259.065 59.4019 258.573 59.5319 258.194 59.7918C257.825 60.0518 257.641 60.4092 257.641 60.864C257.641 61.2864 257.777 61.6113 258.047 61.8388C258.329 62.0662 258.789 62.2395 259.428 62.3586L260.712 62.6023C261.556 62.7648 262.179 63.0301 262.58 63.3984C262.981 63.7666 263.181 64.254 263.181 64.8605Z" fill="url(#paint1_linear_14_10)"/>
<path d="M183.073 582.124L191.196 578.55V579.541L184.243 582.579L191.196 585.617V586.608L183.073 583.034V582.124ZM193.376 591.141H192.271L199.468 576.341H200.589L193.376 591.141ZM202.723 583.018V588.005H201.586V576.341H202.723V581.02C202.983 580.511 203.351 580.094 203.828 579.769C204.305 579.444 204.851 579.281 205.469 579.281C206.357 579.281 207.066 579.557 207.597 580.11C208.138 580.662 208.409 581.442 208.409 582.449V588.005H207.272V582.839C207.272 582.016 207.088 581.382 206.72 580.938C206.362 580.494 205.832 580.272 205.128 580.272C204.684 580.272 204.277 580.391 203.909 580.63C203.541 580.857 203.249 581.177 203.032 581.588C202.826 582 202.723 582.476 202.723 583.018ZM215.19 586.917V587.924C214.974 588.021 214.768 588.086 214.573 588.119C214.378 588.151 214.172 588.168 213.956 588.168C213.49 588.168 213.068 588.081 212.688 587.908C212.309 587.734 212.006 587.458 211.779 587.079C211.562 586.7 211.454 586.202 211.454 585.585V580.402H209.439V579.444H211.454V576.909H212.591V579.444H215.272V580.402H212.591V585.341C212.591 586.012 212.737 586.478 213.03 586.738C213.333 586.998 213.717 587.128 214.183 587.128C214.367 587.128 214.535 587.112 214.687 587.079C214.849 587.047 215.017 586.993 215.19 586.917ZM218.128 588.005H216.991V579.444H218.047V581.052C218.339 580.5 218.724 580.066 219.2 579.752C219.688 579.438 220.235 579.281 220.841 579.281C221.513 579.281 222.081 579.455 222.547 579.801C223.023 580.148 223.348 580.635 223.522 581.263C223.782 580.657 224.172 580.175 224.691 579.817C225.211 579.46 225.807 579.281 226.478 579.281C227.366 579.281 228.065 579.563 228.574 580.126C229.094 580.678 229.354 581.453 229.354 582.449V588.005H228.233V582.823C228.233 582 228.049 581.372 227.681 580.938C227.323 580.494 226.798 580.272 226.105 580.272C225.672 580.272 225.276 580.391 224.919 580.63C224.561 580.857 224.274 581.177 224.058 581.588C223.852 581.989 223.749 582.455 223.749 582.985V588.005H222.612V582.823C222.612 582 222.433 581.372 222.076 580.938C221.718 580.494 221.188 580.272 220.484 580.272C220.051 580.272 219.65 580.391 219.282 580.63C218.924 580.857 218.643 581.177 218.437 581.588C218.231 581.989 218.128 582.455 218.128 582.985V588.005ZM232.882 588.005H231.745V576.341H232.882V588.005ZM243.534 583.034L235.412 586.608V585.617L242.365 582.579L235.412 579.541V578.55L243.534 582.124V583.034Z" fill="url(#paint2_linear_14_10)"/>
<rect y="234" width="595" height="186" fill="#030303"/>
<path d="M206.103 308.62L211.53 264.951H218.517L213.152 308.62H206.103ZM183.021 298.638L183.021 291.838H223.321L223.321 298.638H183.021ZM189.946 308.62L195.373 264.951H202.36L196.933 308.62H189.946ZM185.142 281.732L185.142 274.933H225.379L225.442 281.732H185.142ZM252.187 274.558C254.849 274.558 257.219 275.099 259.299 276.18C261.42 277.22 263.083 278.842 264.289 281.046C265.495 283.209 266.098 285.995 266.098 289.406L266.098 308.62H256.367L256.367 290.903C256.367 288.199 255.764 286.203 254.558 284.914C253.393 283.625 251.73 282.98 249.567 282.98C248.028 282.98 246.635 283.313 245.387 283.978C244.181 284.602 243.225 285.579 242.518 286.91C241.852 288.241 241.519 289.946 241.519 292.026L241.519 308.62H231.788L231.788 262.331H241.519L241.519 284.352L239.336 281.545C240.542 279.299 242.268 277.574 244.514 276.367C246.76 275.161 249.317 274.558 252.187 274.558ZM292.444 309.119C288.617 309.119 285.249 308.37 282.337 306.873C279.468 305.376 277.243 303.338 275.663 300.759C274.082 298.139 273.292 295.166 273.292 291.838C273.292 288.47 274.061 285.496 275.6 282.918C277.18 280.298 279.322 278.26 282.026 276.804C284.729 275.307 287.786 274.558 291.196 274.558C294.481 274.558 297.434 275.265 300.054 276.679C302.716 278.052 304.816 280.048 306.355 282.668C307.894 285.247 308.663 288.345 308.663 291.963C308.663 292.338 308.642 292.774 308.601 293.273C308.559 293.731 308.518 294.167 308.476 294.583H281.215L281.215 288.906H303.361L299.618 290.591C299.618 288.844 299.264 287.326 298.557 286.037C297.85 284.748 296.873 283.749 295.625 283.042C294.377 282.294 292.922 281.92 291.258 281.92C289.595 281.92 288.118 282.294 286.829 283.042C285.581 283.749 284.604 284.768 283.897 286.099C283.19 287.388 282.837 288.927 282.837 290.716L282.837 292.213C282.837 294.043 283.232 295.665 284.022 297.079C284.854 298.451 285.997 299.512 287.453 300.26C288.95 300.967 290.697 301.321 292.693 301.321C294.481 301.321 296.041 301.05 297.372 300.51C298.744 299.969 299.992 299.158 301.115 298.077L306.293 303.691C304.754 305.438 302.82 306.79 300.491 307.746C298.162 308.661 295.48 309.119 292.444 309.119ZM310.61 308.62L325.645 288.906L325.457 294.271L311.047 275.057H321.964L331.072 287.596L326.955 287.721L336.374 275.057H346.73L332.257 294.084L332.257 288.844L347.229 308.62H336.187L326.643 295.27L330.698 295.831L321.215 308.62H310.61Z" fill="#FFE4B0"/>
<path d="M405.578 315.626C402.867 315.626 400.456 315.186 398.343 314.306C396.231 313.426 394.559 312.229 393.327 310.715C392.095 309.202 391.479 307.459 391.479 305.488C391.479 303.657 391.884 302.02 392.693 300.577C393.503 299.099 394.788 297.726 396.548 296.458C398.308 295.156 400.544 293.889 403.254 292.657C405.226 291.741 406.774 290.932 407.901 290.228C409.027 289.524 409.819 288.855 410.277 288.221C410.735 287.552 410.964 286.883 410.964 286.215C410.964 285.299 410.647 284.56 410.013 283.997C409.415 283.434 408.517 283.152 407.32 283.152C406.053 283.152 405.067 283.469 404.363 284.102C403.659 284.736 403.307 285.546 403.307 286.531C403.307 287.059 403.413 287.587 403.624 288.115C403.835 288.608 404.24 289.189 404.838 289.858C405.437 290.492 406.282 291.319 407.373 292.34L426.857 310.399L422.369 315.626L400.878 295.666C399.646 294.54 398.66 293.484 397.921 292.498C397.182 291.513 396.636 290.544 396.284 289.594C395.967 288.644 395.809 287.658 395.809 286.637C395.809 284.842 396.284 283.258 397.235 281.885C398.185 280.512 399.523 279.456 401.248 278.716C402.973 277.942 404.997 277.555 407.32 277.555C409.467 277.555 411.316 277.907 412.864 278.611C414.449 279.28 415.681 280.248 416.561 281.515C417.476 282.782 417.934 284.296 417.934 286.056C417.934 287.605 417.546 289.031 416.772 290.333C415.997 291.601 414.783 292.797 413.128 293.924C411.509 295.05 409.379 296.194 406.739 297.356C404.944 298.166 403.518 298.958 402.462 299.732C401.441 300.472 400.702 301.228 400.244 302.003C399.787 302.777 399.558 303.64 399.558 304.59C399.558 305.47 399.822 306.262 400.35 306.966C400.913 307.67 401.688 308.216 402.673 308.603C403.659 308.991 404.821 309.184 406.158 309.184C408.306 309.184 410.277 308.691 412.072 307.706C413.868 306.685 415.381 305.189 416.614 303.217C417.881 301.211 418.778 298.782 419.307 295.93L425.907 297.99C425.168 301.58 423.848 304.696 421.947 307.336C420.046 309.976 417.705 312.018 414.924 313.461C412.143 314.905 409.027 315.626 405.578 315.626Z" fill="#FFE4B0"/>
<path d="M219.257 369.502C215.35 369.502 211.869 368.717 208.815 367.145C205.761 365.528 203.358 363.305 201.607 360.475C199.9 357.646 199.047 354.434 199.047 350.841C199.047 347.204 199.9 343.992 201.607 341.208C203.358 338.378 205.761 336.178 208.815 334.606C211.869 332.989 215.35 332.181 219.257 332.181C223.075 332.181 226.398 332.989 229.228 334.606C232.057 336.178 234.146 338.446 235.493 341.41L227.341 345.789C226.398 344.082 225.208 342.825 223.771 342.016C222.379 341.208 220.852 340.804 219.19 340.804C217.393 340.804 215.776 341.208 214.339 342.016C212.902 342.825 211.757 343.97 210.903 345.452C210.095 346.934 209.691 348.731 209.691 350.841C209.691 352.952 210.095 354.749 210.903 356.231C211.757 357.713 212.902 358.858 214.339 359.667C215.776 360.475 217.393 360.879 219.19 360.879C220.852 360.879 222.379 360.498 223.771 359.734C225.208 358.926 226.398 357.646 227.341 355.894L235.493 360.34C234.146 363.26 232.057 365.528 229.228 367.145C226.398 368.717 223.075 369.502 219.257 369.502ZM259.003 369.502C255.141 369.502 251.705 368.694 248.696 367.077C245.732 365.46 243.374 363.26 241.622 360.475C239.916 357.646 239.062 354.434 239.062 350.841C239.062 347.204 239.916 343.992 241.622 341.208C243.374 338.378 245.732 336.178 248.696 334.606C251.705 332.989 255.141 332.181 259.003 332.181C262.821 332.181 266.234 332.989 269.243 334.606C272.252 336.178 274.61 338.356 276.317 341.14C278.024 343.925 278.877 347.159 278.877 350.841C278.877 354.434 278.024 357.646 276.317 360.475C274.61 363.26 272.252 365.46 269.243 367.077C266.234 368.694 262.821 369.502 259.003 369.502ZM259.003 360.879C260.755 360.879 262.327 360.475 263.719 359.667C265.111 358.858 266.212 357.713 267.02 356.231C267.829 354.704 268.233 352.907 268.233 350.841C268.233 348.731 267.829 346.934 267.02 345.452C266.212 343.97 265.111 342.825 263.719 342.016C262.327 341.208 260.755 340.804 259.003 340.804C257.252 340.804 255.68 341.208 254.288 342.016C252.895 342.825 251.772 343.97 250.919 345.452C250.111 346.934 249.707 348.731 249.707 350.841C249.706 352.907 250.111 354.704 250.919 356.231C251.772 357.713 252.895 358.858 254.288 359.667C255.68 360.475 257.252 360.879 259.003 360.879ZM302.137 369.502C298.724 369.502 295.648 368.739 292.908 367.212C290.168 365.64 287.99 363.462 286.373 360.677C284.801 357.893 284.015 354.614 284.015 350.841C284.015 347.024 284.801 343.723 286.373 340.938C287.99 338.154 290.168 335.998 292.908 334.471C295.648 332.944 298.724 332.181 302.137 332.181C305.191 332.181 307.864 332.854 310.154 334.202C312.445 335.549 314.219 337.592 315.476 340.332C316.734 343.072 317.363 346.575 317.363 350.841C317.363 355.063 316.756 358.566 315.544 361.351C314.331 364.091 312.579 366.134 310.289 367.481C308.043 368.829 305.326 369.502 302.137 369.502ZM303.956 360.879C305.663 360.879 307.212 360.475 308.605 359.667C309.997 358.858 311.097 357.713 311.906 356.231C312.759 354.704 313.186 352.907 313.186 350.841C313.186 348.731 312.759 346.934 311.906 345.452C311.097 343.97 309.997 342.825 308.605 342.016C307.212 341.208 305.663 340.804 303.956 340.804C302.205 340.804 300.633 341.208 299.241 342.016C297.848 342.825 296.725 343.97 295.872 345.452C295.064 346.934 294.659 348.731 294.659 350.841C294.659 352.907 295.064 354.704 295.872 356.231C296.725 357.713 297.848 358.858 299.241 359.667C300.633 360.475 302.205 360.879 303.956 360.879ZM313.455 368.964L313.455 361.553L313.657 350.774L312.984 340.063L312.984 318.976H323.493L323.493 368.964H313.455ZM351.881 369.502C347.749 369.502 344.111 368.694 340.967 367.077C337.868 365.46 335.465 363.26 333.759 360.475C332.052 357.646 331.199 354.434 331.199 350.841C331.199 347.204 332.03 343.992 333.691 341.208C335.398 338.378 337.711 336.178 340.63 334.606C343.55 332.989 346.851 332.181 350.533 332.181C354.082 332.181 357.27 332.944 360.1 334.471C362.974 335.953 365.242 338.109 366.904 340.938C368.566 343.723 369.397 347.069 369.397 350.976C369.397 351.38 369.374 351.852 369.329 352.391C369.284 352.885 369.239 353.357 369.194 353.806H339.755L339.755 347.675H363.67L359.628 349.494C359.628 347.608 359.246 345.969 358.483 344.576C357.719 343.184 356.664 342.106 355.317 341.343C353.969 340.534 352.397 340.13 350.601 340.13C348.804 340.13 347.21 340.534 345.818 341.343C344.47 342.106 343.415 343.206 342.651 344.644C341.888 346.036 341.506 347.698 341.506 349.629L341.506 351.246C341.506 353.222 341.933 354.973 342.786 356.5C343.684 357.983 344.919 359.128 346.491 359.936C348.108 360.7 349.995 361.081 352.15 361.081C354.082 361.081 355.766 360.79 357.203 360.206C358.685 359.622 360.032 358.746 361.245 357.578L366.837 363.641C365.175 365.528 363.086 366.987 360.571 368.02C358.056 369.008 355.159 369.502 351.881 369.502ZM389.261 369.502C386.162 369.502 383.175 369.143 380.301 368.425C377.471 367.661 375.226 366.718 373.564 365.595L377.067 358.05C378.729 359.083 380.682 359.936 382.928 360.61C385.219 361.239 387.464 361.553 389.665 361.553C392.09 361.553 393.797 361.261 394.785 360.677C395.818 360.093 396.334 359.285 396.334 358.252C396.334 357.399 395.93 356.77 395.122 356.366C394.358 355.917 393.325 355.58 392.023 355.355C390.72 355.131 389.283 354.906 387.711 354.681C386.184 354.457 384.635 354.165 383.063 353.806C381.491 353.401 380.054 352.818 378.751 352.054C377.449 351.291 376.393 350.258 375.585 348.955C374.821 347.653 374.44 345.969 374.44 343.903C374.44 341.612 375.091 339.591 376.393 337.839C377.741 336.088 379.672 334.718 382.187 333.73C384.702 332.697 387.711 332.181 391.214 332.181C393.685 332.181 396.2 332.45 398.76 332.989C401.32 333.528 403.453 334.314 405.16 335.347L401.656 342.825C399.905 341.792 398.131 341.096 396.334 340.736C394.583 340.332 392.876 340.13 391.214 340.13C388.879 340.13 387.172 340.444 386.094 341.073C385.016 341.702 384.478 342.51 384.478 343.498C384.478 344.397 384.859 345.07 385.623 345.519C386.431 345.969 387.487 346.328 388.789 346.597C390.092 346.867 391.506 347.114 393.033 347.338C394.605 347.518 396.177 347.81 397.749 348.214C399.321 348.618 400.736 349.202 401.993 349.966C403.296 350.684 404.351 351.695 405.16 352.997C405.968 354.255 406.372 355.917 406.372 357.983C406.372 360.228 405.698 362.227 404.351 363.978C403.004 365.685 401.05 367.032 398.49 368.02C395.975 369.008 392.899 369.502 389.261 369.502Z" fill="#FFE4B0"/>
<defs>
<linearGradient id="paint0_linear_14_10" x1="262.185" y1="26.5473" x2="334.799" y2="199.67" gradientUnits="userSpaceOnUse">
<stop stop-color="white"/>
<stop offset="1" stop-color="#343434"/>
</linearGradient>
<linearGradient id="paint1_linear_14_10" x1="262.185" y1="54.7959" x2="334.799" y2="227.919" gradientUnits="userSpaceOnUse">
<stop stop-color="white"/>
<stop offset="1" stop-color="#343434"/>
</linearGradient>
<linearGradient id="paint2_linear_14_10" x1="247.912" y1="575.393" x2="336.369" y2="741.19" gradientUnits="userSpaceOnUse">
<stop stop-color="white"/>
<stop offset="1" stop-color="#343434"/>
</linearGradient>
</defs>
</svg>
