<svg width="109" height="59" viewBox="0 0 109 59" fill="none" xmlns="http://www.w3.org/2000/svg">
<path d="M11.759 29L14.3822 7.89405L17.7591 7.89405L15.1661 29L11.759 29ZM0.603023 24.1758L0.603024 20.8893L20.0808 20.8893L20.0808 24.1758L0.603023 24.1758ZM3.94982 29L6.57299 7.89405H9.94994L7.32677 29H3.94982ZM1.62817 16.0048L1.62817 12.7183L21.0758 12.7183L21.1059 16.0048L1.62817 16.0048ZM34.0326 12.5374C35.3191 12.5374 36.4648 12.7987 37.4699 13.3213C38.495 13.8238 39.2991 14.6078 39.882 15.6731C40.4649 16.7184 40.7564 18.0651 40.7564 19.7134L40.7564 29H36.0528L36.0528 20.437C36.0528 19.1305 35.7613 18.1656 35.1784 17.5425C34.6156 16.9194 33.8115 16.6078 32.7663 16.6078C32.0225 16.6078 31.3492 16.7686 30.7461 17.0902C30.1632 17.3917 29.7009 17.8641 29.3592 18.5073C29.0376 19.1506 28.8767 19.9747 28.8767 20.9797L28.8767 29H24.1731L24.1731 6.6277L28.8767 6.6277L28.8767 17.2711L27.8214 15.9143C28.4044 14.8289 29.2386 13.9947 30.324 13.4118C31.4095 12.8288 32.6457 12.5374 34.0326 12.5374ZM53.4897 29.2412C51.6404 29.2412 50.0122 28.8794 48.6051 28.1558C47.2182 27.4321 46.1428 26.4472 45.379 25.2009C44.6151 23.9346 44.2332 22.4974 44.2332 20.8893C44.2332 19.2611 44.6051 17.8239 45.3488 16.5776C46.1126 15.3113 47.1478 14.3263 48.4544 13.6228C49.7609 12.8992 51.2384 12.5374 52.8866 12.5374C54.4746 12.5374 55.9018 12.8791 57.1681 13.5625C58.4546 14.2258 59.4697 15.1907 60.2134 16.457C60.9571 17.7033 61.329 19.2008 61.329 20.9496C61.329 21.1305 61.319 21.3416 61.2989 21.5828C61.2788 21.8039 61.2587 22.0149 61.2386 22.2159H48.0624L48.0624 19.4722H58.7661L56.9571 20.2863C56.9571 19.442 56.7862 18.7083 56.4445 18.0852C56.1028 17.4621 55.6304 16.9797 55.0274 16.6379C54.4244 16.2761 53.7208 16.0952 52.9168 16.0952C52.1128 16.0952 51.3992 16.2761 50.776 16.6379C50.173 16.9797 49.7006 17.4721 49.3589 18.1154C49.0172 18.7385 48.8464 19.4822 48.8464 20.3466L48.8464 21.0702C48.8464 21.9546 49.0373 22.7386 49.4192 23.422C49.8212 24.0853 50.374 24.5979 51.0776 24.9597C51.8012 25.3014 52.6454 25.4723 53.6103 25.4723C54.4746 25.4723 55.2284 25.3416 55.8716 25.0803C56.5349 24.819 57.138 24.427 57.6807 23.9044L60.1833 26.618C59.4395 27.4623 58.5048 28.1156 57.3792 28.5779C56.2535 29.0201 54.957 29.2412 53.4897 29.2412ZM62.2701 29L69.5365 19.4722L69.4461 22.0652L62.4811 12.7786L67.7576 12.7786L72.1597 18.839L70.1697 18.8993L74.7226 12.7786L79.7277 12.7786L72.7326 21.9747L72.7326 19.442L79.9689 29H74.6321L70.019 22.5476L71.9788 22.819L67.3958 29H62.2701Z" fill="#FFE4B0"/>
<path d="M89.509 31.3561C88.1989 31.3561 87.0334 31.1434 86.0125 30.718C84.9917 30.2927 84.1835 29.7142 83.588 28.9826C82.9925 28.251 82.6948 27.4088 82.6948 26.456C82.6948 25.5712 82.8904 24.7801 83.2818 24.0825C83.6731 23.3679 84.2941 22.7043 85.1448 22.0918C85.9955 21.4623 87.0759 20.8498 88.386 20.2543C89.3388 19.8119 90.0875 19.4206 90.6319 19.0803C91.1764 18.74 91.5592 18.4167 91.7804 18.1105C92.0016 17.7872 92.1122 17.4639 92.1122 17.1407C92.1122 16.6983 91.959 16.341 91.6528 16.0688C91.3635 15.7965 90.9297 15.6604 90.3512 15.6604C89.7387 15.6604 89.2623 15.8136 88.922 16.1198C88.5817 16.4261 88.4116 16.8174 88.4116 17.2938C88.4116 17.549 88.4626 17.8042 88.5647 18.0594C88.6668 18.2976 88.8624 18.5784 89.1517 18.9016C89.4409 19.2079 89.8493 19.6077 90.3767 20.1011L99.7941 28.8294L97.6248 31.3561L87.2376 21.709C86.6421 21.1645 86.1657 20.6541 85.8084 20.1777C85.4511 19.7013 85.1874 19.2334 85.0172 18.774C84.8641 18.3146 84.7875 17.8382 84.7875 17.3448C84.7875 16.4771 85.0172 15.7115 85.4766 15.0479C85.936 14.3844 86.5825 13.8739 87.4162 13.5166C88.2499 13.1423 89.2282 12.9552 90.3512 12.9552C91.389 12.9552 92.2823 13.1253 93.0309 13.4656C93.7966 13.7889 94.3921 14.2567 94.8174 14.8693C95.2598 15.4818 95.481 16.2134 95.481 17.0641C95.481 17.8127 95.2938 18.5018 94.9195 19.1313C94.5452 19.7438 93.9582 20.3223 93.1585 20.8668C92.3759 21.4112 91.3465 21.9642 90.0704 22.5257C89.2027 22.917 88.5136 23.2998 88.0032 23.6741C87.5098 24.0314 87.1525 24.3972 86.9313 24.7715C86.7101 25.1459 86.5995 25.5627 86.5995 26.0221C86.5995 26.4475 86.7271 26.8303 86.9824 27.1706C87.2546 27.5108 87.6289 27.7746 88.1053 27.9617C88.5817 28.1489 89.1432 28.2425 89.7897 28.2425C90.8276 28.2425 91.7804 28.0043 92.6481 27.5279C93.5158 27.0344 94.2474 26.3113 94.8429 25.3585C95.4554 24.3887 95.8893 23.2147 96.1445 21.8366L99.3347 22.8319C98.9774 24.5674 98.3394 26.0731 97.4206 27.3492C96.5018 28.6253 95.3704 29.6121 94.0263 30.3097C92.6821 31.0073 91.1764 31.3561 89.509 31.3561Z" fill="#FFE4B0"/>
<path d="M16.7591 54.0393C14.8706 54.0393 13.1883 53.6594 11.7122 52.8997C10.2361 52.1182 9.0748 51.0437 8.22822 49.6762C7.40335 48.3086 6.99091 46.7565 6.99092 45.02C6.99092 43.2617 7.40335 41.7096 8.22822 40.3638C9.0748 38.9962 10.2361 37.9326 11.7122 37.1728C13.1883 36.3914 14.8706 36.0006 16.7591 36.0006C18.6043 36.0006 20.2106 36.3914 21.5781 37.1728C22.9457 37.9326 23.9551 39.0288 24.6063 40.4615L20.6664 42.5779C20.2106 41.753 19.6353 41.1452 18.9407 40.7545C18.2678 40.3638 17.5297 40.1684 16.7266 40.1684C15.8583 40.1684 15.0768 40.3638 14.3822 40.7545C13.6876 41.1452 13.134 41.6988 12.7216 42.4151C12.3309 43.1314 12.1355 43.9997 12.1355 45.02C12.1355 46.0402 12.3309 46.9085 12.7216 47.6248C13.134 48.3412 13.6876 48.8947 14.3822 49.2854C15.0768 49.6762 15.8583 49.8715 16.7266 49.8715C17.5297 49.8715 18.2678 49.687 18.9407 49.318C19.6353 48.9273 20.2106 48.3086 20.6664 47.462L24.6063 49.611C23.9551 51.022 22.9457 52.1182 21.5781 52.8997C20.2106 53.6594 18.6043 54.0393 16.7591 54.0393ZM35.9695 54.0393C34.1027 54.0393 32.4421 53.6486 30.9877 52.8671C29.555 52.0856 28.4154 51.022 27.5688 49.6762C26.7439 48.3086 26.3315 46.7565 26.3315 45.02C26.3315 43.2617 26.7439 41.7096 27.5688 40.3638C28.4154 38.9962 29.555 37.9326 30.9877 37.1728C32.4421 36.3914 34.1027 36.0006 35.9695 36.0006C37.8146 36.0006 39.4643 36.3914 40.9187 37.1728C42.3731 37.9326 43.5127 38.9854 44.3376 40.3312C45.1625 41.6771 45.5749 43.24 45.5749 45.02C45.5749 46.7565 45.1625 48.3086 44.3376 49.6762C43.5127 51.022 42.3731 52.0856 40.9187 52.8671C39.4643 53.6486 37.8146 54.0393 35.9695 54.0393ZM35.9695 49.8715C36.8161 49.8715 37.5758 49.6762 38.2487 49.2854C38.9217 48.8947 39.4535 48.3412 39.8442 47.6248C40.2349 46.8868 40.4303 46.0185 40.4303 45.02C40.4303 43.9997 40.2349 43.1314 39.8442 42.4151C39.4535 41.6988 38.9217 41.1452 38.2487 40.7545C37.5758 40.3638 36.8161 40.1684 35.9695 40.1684C35.1229 40.1684 34.3632 40.3638 33.6902 40.7545C33.0173 41.1452 32.4746 41.6988 32.0622 42.4151C31.6715 43.1314 31.4761 43.9997 31.4761 45.02C31.4761 46.0185 31.6715 46.8868 32.0622 47.6248C32.4746 48.3412 33.0173 48.8947 33.6902 49.2854C34.3632 49.6762 35.1229 49.8715 35.9695 49.8715ZM56.8173 54.0393C55.1675 54.0393 53.6806 53.6703 52.3564 52.9322C51.0323 52.1725 49.9795 51.1197 49.1981 49.7738C48.4383 48.428 48.0584 46.8434 48.0584 45.02C48.0584 43.1749 48.4383 41.5794 49.1981 40.2335C49.9795 38.8877 51.0323 37.8457 52.3565 37.1077C53.6806 36.3697 55.1675 36.0006 56.8173 36.0006C58.2934 36.0006 59.5849 36.3262 60.692 36.9775C61.7991 37.6287 62.6565 38.6163 63.2643 39.9405C63.8721 41.2646 64.176 42.9578 64.176 45.02C64.176 47.0604 63.883 48.7536 63.2969 50.0994C62.7108 51.4236 61.8642 52.4113 60.7571 53.0625C59.6718 53.7137 58.3585 54.0393 56.8173 54.0393ZM57.6964 49.8715C58.5213 49.8715 59.2702 49.6762 59.9431 49.2854C60.616 48.8947 61.1479 48.3412 61.5386 47.6248C61.951 46.8868 62.1572 46.0185 62.1572 45.02C62.1572 43.9997 61.951 43.1314 61.5386 42.4151C61.1479 41.6988 60.616 41.1452 59.9431 40.7545C59.2702 40.3638 58.5213 40.1684 57.6964 40.1684C56.8498 40.1684 56.0901 40.3638 55.4172 40.7545C54.7442 41.1452 54.2016 41.6988 53.7891 42.4151C53.3984 43.1314 53.203 43.9997 53.203 45.02C53.203 46.0185 53.3984 46.8868 53.7891 47.6248C54.2016 48.3412 54.7442 48.8947 55.4172 49.2854C56.0901 49.6762 56.8498 49.8715 57.6964 49.8715ZM62.2875 53.7788L62.2875 50.1971L62.3852 44.9874L62.0596 39.8102L62.0596 29.6187H67.139L67.139 53.7788H62.2875ZM80.8596 54.0393C78.8625 54.0393 77.1042 53.6486 75.5847 52.8671C74.0869 52.0856 72.9256 51.022 72.1007 49.6762C71.2759 48.3086 70.8634 46.7565 70.8634 45.02C70.8634 43.2617 71.265 41.7096 72.0682 40.3638C72.893 38.9962 74.011 37.9326 75.4219 37.1728C76.8329 36.3914 78.4284 36.0006 80.2084 36.0006C81.9232 36.0006 83.4644 36.3697 84.832 37.1077C86.2213 37.824 87.3175 38.866 88.1206 40.2335C88.9238 41.5794 89.3254 43.1966 89.3254 45.0851C89.3254 45.2804 89.3145 45.5084 89.2928 45.7689C89.2711 46.0076 89.2494 46.2356 89.2277 46.4526L74.9986 46.4526L74.9986 43.4896L86.5577 43.4896L84.6041 44.3687C84.6041 43.457 84.4196 42.6647 84.0505 41.9918C83.6815 41.3189 83.1714 40.7979 82.5202 40.4289C81.869 40.0382 81.1092 39.8428 80.2409 39.8428C79.3726 39.8428 78.602 40.0382 77.9291 40.4289C77.2779 40.7979 76.7678 41.3297 76.3988 42.0244C76.0297 42.6973 75.8452 43.5005 75.8452 44.4339L75.8452 45.2153C75.8452 46.1704 76.0514 47.017 76.4639 47.7551C76.898 48.4714 77.495 49.0249 78.2547 49.4157C79.0362 49.7847 79.9479 49.9692 80.9898 49.9692C81.9232 49.9692 82.7372 49.8281 83.4319 49.5459C84.1482 49.2637 84.7994 48.8404 85.3855 48.276L88.0881 51.2065C87.2849 52.1182 86.2755 52.8237 85.0599 53.323C83.8443 53.8005 82.4442 54.0393 80.8596 54.0393ZM98.9262 54.0393C97.4284 54.0393 95.9849 53.8656 94.5956 53.5183C93.2281 53.1493 92.1427 52.6934 91.3396 52.1508L93.0327 48.504C93.8359 49.0032 94.7802 49.4157 95.8655 49.7413C96.9726 50.0452 98.0579 50.1971 99.1216 50.1971C100.294 50.1971 101.119 50.056 101.596 49.7738C102.095 49.4916 102.345 49.1009 102.345 48.6016C102.345 48.1892 102.15 47.8853 101.759 47.6899C101.39 47.4729 100.891 47.3101 100.261 47.2015C99.6317 47.093 98.9371 46.9845 98.1773 46.8759C97.4393 46.7674 96.6904 46.6263 95.9306 46.4526C95.1709 46.2573 94.4763 45.9751 93.8467 45.6061C93.2172 45.237 92.7071 44.7378 92.3164 44.1083C91.9474 43.4788 91.7629 42.6647 91.7629 41.6662C91.7629 40.5591 92.0776 39.5823 92.7071 38.7357C93.3583 37.8892 94.2917 37.2271 95.5073 36.7495C96.7229 36.2503 98.1773 36.0006 99.8705 36.0006C101.064 36.0006 102.28 36.1309 103.517 36.3914C104.755 36.6518 105.786 37.0317 106.611 37.531L104.917 41.1452C104.071 40.646 103.213 40.3095 102.345 40.1358C101.499 39.9405 100.674 39.8428 99.8705 39.8428C98.7417 39.8428 97.9168 39.9948 97.3959 40.2987C96.8749 40.6026 96.6144 40.9933 96.6144 41.4708C96.6144 41.905 96.7989 42.2306 97.1679 42.4477C97.5587 42.6647 98.0688 42.8384 98.6983 42.9686C99.3278 43.0989 100.012 43.2183 100.75 43.3268C101.509 43.4136 102.269 43.5547 103.029 43.7501C103.789 43.9455 104.472 44.2277 105.08 44.5967C105.71 44.944 106.22 45.4324 106.611 46.0619C107.001 46.6697 107.197 47.4729 107.197 48.4714C107.197 49.5568 106.871 50.5227 106.22 51.3693C105.569 52.1942 104.624 52.8454 103.387 53.323C102.171 53.8005 100.685 54.0393 98.9262 54.0393Z" fill="#FFE4B0"/>
</svg>
