<svg width="635" height="561" viewBox="0 0 635 561" fill="none" xmlns="http://www.w3.org/2000/svg">
<path d="M426.279 273.554H528.555C528.555 294.492 525.602 316.236 519.696 338.785C513.791 361.334 506.006 383.077 496.342 404.016C487.215 424.417 476.209 442.94 463.324 459.583C437.017 492.869 408.025 518.103 376.349 535.283C345.21 551.926 312.192 560.248 277.295 560.248C237.029 560.248 202.132 553 172.603 538.504C143.075 524.008 119.989 503.607 103.346 477.3C87.2394 450.456 79.1862 419.048 79.1862 383.077C79.1862 359.455 84.555 337.443 95.2926 317.041C106.03 296.103 121.063 277.58 140.391 261.474C159.718 244.831 182.536 231.14 208.843 220.403L268.437 290.466C252.33 293.687 237.834 299.324 224.949 307.377C212.601 314.894 202.937 324.557 195.958 336.369C189.515 348.18 186.294 361.602 186.294 376.635C186.294 393.815 189.784 409.385 196.763 423.343C204.279 437.302 215.554 448.577 230.586 457.167C245.619 465.22 263.873 469.247 285.348 469.247C310.045 469.247 332.594 463.073 352.995 450.724C373.397 437.839 389.503 420.122 401.314 397.573C408.831 384.151 414.736 366.166 419.031 343.617C423.326 320.531 425.742 297.177 426.279 273.554ZM315.145 237.314L608.282 553H470.572L202.4 267.111C190.052 253.689 179.851 240.804 171.798 228.456C164.282 215.571 158.376 202.417 154.081 188.995C149.786 175.036 147.638 160.541 147.638 145.508C147.638 117.59 154.886 92.8936 169.382 71.4184C184.415 49.4063 204.816 32.2261 230.586 19.8779C256.357 6.99274 285.348 0.550184 317.561 0.550184C350.311 0.550184 378.765 6.72431 402.925 19.0726C427.622 31.4208 446.949 48.601 460.908 70.6131C474.867 92.6252 481.846 118.395 481.846 147.924H377.96C376.886 135.039 373.665 124.57 368.296 116.516C362.927 107.926 355.68 101.484 346.553 97.1886C337.963 92.3567 328.299 89.9407 317.561 89.9407C307.36 89.9407 297.965 92.3567 289.375 97.1886C280.785 101.484 274.074 107.926 269.242 116.516C264.947 125.106 262.799 135.039 262.799 146.313C262.799 155.977 264.678 165.372 268.437 174.499C272.195 183.626 277.832 193.29 285.348 203.491C293.401 213.155 303.334 224.429 315.145 237.314Z" fill="#151515"/>
<rect x="-46" y="227" width="681" height="144" fill="#030303"/>
<path d="M223.329 294L228.757 250.332H235.744L230.379 294H223.329ZM200.248 284.019L200.248 277.219H240.547L240.547 284.019H200.248ZM207.172 294L212.6 250.332H219.586L214.159 294H207.172ZM202.369 267.113L202.369 260.313H242.606L242.668 267.113H202.369ZM269.413 259.939C272.075 259.939 274.446 260.479 276.525 261.561C278.646 262.601 280.31 264.222 281.516 266.427C282.722 268.589 283.325 271.376 283.325 274.786L283.325 294H273.593L273.593 276.283C273.593 273.58 272.99 271.584 271.784 270.294C270.619 269.005 268.956 268.361 266.793 268.361C265.255 268.361 263.861 268.693 262.614 269.359C261.408 269.983 260.451 270.96 259.744 272.291C259.079 273.622 258.746 275.327 258.746 277.406L258.746 294H249.014L249.014 247.712H258.746L258.746 269.733L256.563 266.926C257.769 264.68 259.495 262.954 261.74 261.748C263.986 260.542 266.544 259.939 269.413 259.939ZM309.67 294.499C305.844 294.499 302.475 293.75 299.564 292.253C296.694 290.756 294.469 288.718 292.889 286.14C291.309 283.52 290.518 280.546 290.518 277.219C290.518 273.85 291.288 270.877 292.827 268.298C294.407 265.678 296.549 263.64 299.252 262.185C301.955 260.687 305.012 259.939 308.422 259.939C311.708 259.939 314.661 260.646 317.281 262.06C319.942 263.432 322.043 265.429 323.581 268.049C325.12 270.627 325.89 273.726 325.89 277.344C325.89 277.718 325.869 278.155 325.827 278.654C325.786 279.111 325.744 279.548 325.702 279.964H298.441L298.441 274.287H320.587L316.844 275.971C316.844 274.225 316.491 272.707 315.784 271.417C315.077 270.128 314.099 269.13 312.852 268.423C311.604 267.674 310.148 267.3 308.485 267.3C306.821 267.3 305.345 267.674 304.056 268.423C302.808 269.13 301.831 270.149 301.124 271.48C300.417 272.769 300.063 274.308 300.063 276.096L300.063 277.593C300.063 279.423 300.458 281.045 301.248 282.459C302.08 283.832 303.224 284.892 304.679 285.641C306.177 286.348 307.923 286.701 309.92 286.701C311.708 286.701 313.267 286.431 314.598 285.89C315.971 285.35 317.218 284.539 318.341 283.457L323.519 289.072C321.98 290.818 320.046 292.17 317.717 293.127C315.388 294.042 312.706 294.499 309.67 294.499ZM327.837 294L342.871 274.287L342.684 279.652L328.273 260.438H339.19L348.298 272.977L344.181 273.102L353.601 260.438H363.956L349.484 279.465L349.484 274.225L364.455 294H353.414L343.869 280.65L347.924 281.211L338.442 294H327.837Z" fill="#FFE4B0"/>
<path d="M384.194 298.15C381.483 298.15 379.072 297.71 376.96 296.83C374.848 295.95 373.176 294.753 371.944 293.24C370.711 291.726 370.095 289.983 370.095 288.012C370.095 286.182 370.5 284.545 371.31 283.101C372.12 281.623 373.404 280.25 375.165 278.983C376.925 277.68 379.16 276.413 381.871 275.181C383.842 274.266 385.391 273.456 386.517 272.752C387.644 272.048 388.436 271.379 388.893 270.745C389.351 270.076 389.58 269.408 389.58 268.739C389.58 267.823 389.263 267.084 388.629 266.521C388.031 265.958 387.133 265.676 385.936 265.676C384.669 265.676 383.684 265.993 382.979 266.627C382.275 267.26 381.923 268.07 381.923 269.056C381.923 269.584 382.029 270.112 382.24 270.64C382.451 271.133 382.856 271.713 383.455 272.382C384.053 273.016 384.898 273.843 385.989 274.864L405.474 292.923L400.986 298.15L379.494 278.191C378.262 277.064 377.277 276.008 376.537 275.022C375.798 274.037 375.253 273.069 374.901 272.118C374.584 271.168 374.425 270.182 374.425 269.161C374.425 267.366 374.901 265.782 375.851 264.409C376.801 263.036 378.139 261.98 379.864 261.241C381.589 260.466 383.613 260.079 385.936 260.079C388.084 260.079 389.932 260.431 391.481 261.135C393.065 261.804 394.297 262.772 395.177 264.039C396.092 265.307 396.55 266.82 396.55 268.58C396.55 270.129 396.163 271.555 395.388 272.857C394.614 274.125 393.399 275.322 391.745 276.448C390.126 277.575 387.996 278.719 385.356 279.88C383.56 280.69 382.135 281.482 381.079 282.256C380.058 282.996 379.318 283.753 378.861 284.527C378.403 285.301 378.174 286.164 378.174 287.114C378.174 287.994 378.438 288.787 378.966 289.491C379.53 290.195 380.304 290.74 381.29 291.127C382.275 291.515 383.437 291.708 384.775 291.708C386.922 291.708 388.893 291.215 390.689 290.23C392.484 289.209 393.998 287.713 395.23 285.742C396.497 283.735 397.395 281.306 397.923 278.455L404.523 280.514C403.784 284.105 402.464 287.22 400.563 289.86C398.662 292.5 396.321 294.542 393.54 295.985C390.759 297.429 387.644 298.15 384.194 298.15Z" fill="#FFE4B0"/>
<path d="M233.675 344.6C229.767 344.6 226.287 343.814 223.233 342.242C220.179 340.625 217.776 338.402 216.024 335.573C214.318 332.743 213.464 329.532 213.464 325.939C213.464 322.301 214.318 319.09 216.024 316.305C217.776 313.476 220.179 311.275 223.233 309.703C226.287 308.087 229.767 307.278 233.675 307.278C237.492 307.278 240.816 308.087 243.645 309.703C246.475 311.275 248.563 313.543 249.911 316.508L241.759 320.886C240.816 319.18 239.626 317.922 238.188 317.114C236.796 316.305 235.269 315.901 233.607 315.901C231.811 315.901 230.194 316.305 228.757 317.114C227.32 317.922 226.174 319.068 225.321 320.55C224.513 322.032 224.109 323.828 224.109 325.939C224.109 328.05 224.513 329.846 225.321 331.329C226.174 332.811 227.32 333.956 228.757 334.764C230.194 335.573 231.811 335.977 233.607 335.977C235.269 335.977 236.796 335.595 238.188 334.832C239.626 334.023 240.816 332.743 241.759 330.992L249.911 335.438C248.563 338.357 246.475 340.625 243.645 342.242C240.816 343.814 237.492 344.6 233.675 344.6ZM273.421 344.6C269.559 344.6 266.123 343.792 263.114 342.175C260.149 340.558 257.792 338.357 256.04 335.573C254.333 332.743 253.48 329.532 253.48 325.939C253.48 322.301 254.333 319.09 256.04 316.305C257.792 313.476 260.149 311.275 263.114 309.703C266.123 308.087 269.559 307.278 273.421 307.278C277.239 307.278 280.652 308.087 283.661 309.703C286.67 311.275 289.028 313.453 290.735 316.238C292.441 319.023 293.295 322.256 293.295 325.939C293.295 329.532 292.441 332.743 290.735 335.573C289.028 338.357 286.67 340.558 283.661 342.175C280.652 343.792 277.238 344.6 273.421 344.6ZM273.421 335.977C275.173 335.977 276.744 335.573 278.137 334.764C279.529 333.956 280.629 332.811 281.438 331.329C282.246 329.802 282.65 328.005 282.65 325.939C282.65 323.828 282.246 322.032 281.438 320.55C280.629 319.068 279.529 317.922 278.137 317.114C276.744 316.305 275.173 315.901 273.421 315.901C271.669 315.901 270.097 316.305 268.705 317.114C267.313 317.922 266.19 319.068 265.337 320.55C264.528 322.032 264.124 323.828 264.124 325.939C264.124 328.005 264.528 329.802 265.337 331.329C266.19 332.811 267.313 333.956 268.705 334.764C270.097 335.573 271.669 335.977 273.421 335.977ZM316.555 344.6C313.142 344.6 310.065 343.837 307.326 342.31C304.586 340.738 302.408 338.559 300.791 335.775C299.219 332.99 298.433 329.712 298.433 325.939C298.433 322.122 299.219 318.82 300.791 316.036C302.408 313.251 304.586 311.096 307.326 309.569C310.065 308.042 313.142 307.278 316.555 307.278C319.609 307.278 322.281 307.952 324.572 309.299C326.862 310.646 328.636 312.69 329.894 315.43C331.151 318.169 331.78 321.672 331.78 325.939C331.78 330.161 331.174 333.664 329.961 336.448C328.749 339.188 326.997 341.232 324.707 342.579C322.461 343.926 319.744 344.6 316.555 344.6ZM318.374 335.977C320.081 335.977 321.63 335.573 323.022 334.764C324.415 333.956 325.515 332.811 326.323 331.329C327.177 329.802 327.603 328.005 327.603 325.939C327.603 323.828 327.177 322.032 326.323 320.55C325.515 319.068 324.415 317.922 323.022 317.114C321.63 316.305 320.081 315.901 318.374 315.901C316.622 315.901 315.05 316.305 313.658 317.114C312.266 317.922 311.143 319.068 310.29 320.55C309.481 322.032 309.077 323.828 309.077 325.939C309.077 328.005 309.481 329.802 310.29 331.329C311.143 332.811 312.266 333.956 313.658 334.764C315.05 335.573 316.622 335.977 318.374 335.977ZM327.873 344.061L327.873 336.651L328.075 325.872L327.401 315.16L327.401 294.074H337.911L337.911 344.061H327.873ZM366.298 344.6C362.167 344.6 358.529 343.792 355.385 342.175C352.286 340.558 349.883 338.357 348.176 335.573C346.47 332.743 345.616 329.532 345.616 325.939C345.616 322.301 346.447 319.09 348.109 316.305C349.816 313.476 352.129 311.275 355.048 309.703C357.967 308.087 361.268 307.278 364.951 307.278C368.499 307.278 371.688 308.042 374.517 309.569C377.392 311.051 379.66 313.206 381.322 316.036C382.983 318.82 383.814 322.166 383.814 326.074C383.814 326.478 383.792 326.95 383.747 327.489C383.702 327.983 383.657 328.454 383.612 328.903H354.172L354.172 322.773H378.088L374.046 324.592C374.046 322.705 373.664 321.066 372.901 319.674C372.137 318.282 371.082 317.204 369.734 316.44C368.387 315.632 366.815 315.228 365.018 315.228C363.222 315.228 361.628 315.632 360.235 316.44C358.888 317.204 357.833 318.304 357.069 319.741C356.306 321.133 355.924 322.795 355.924 324.726L355.924 326.343C355.924 328.319 356.35 330.071 357.204 331.598C358.102 333.08 359.337 334.225 360.909 335.034C362.526 335.797 364.412 336.179 366.568 336.179C368.499 336.179 370.183 335.887 371.621 335.303C373.103 334.719 374.45 333.844 375.663 332.676L381.254 338.739C379.592 340.625 377.504 342.085 374.989 343.118C372.474 344.106 369.577 344.6 366.298 344.6ZM403.678 344.6C400.579 344.6 397.593 344.241 394.718 343.522C391.889 342.759 389.643 341.815 387.982 340.693L391.485 333.147C393.146 334.18 395.1 335.034 397.346 335.707C399.636 336.336 401.882 336.651 404.083 336.651C406.508 336.651 408.214 336.359 409.203 335.775C410.236 335.191 410.752 334.383 410.752 333.35C410.752 332.496 410.348 331.867 409.539 331.463C408.776 331.014 407.743 330.677 406.44 330.453C405.138 330.228 403.701 330.004 402.129 329.779C400.602 329.554 399.052 329.263 397.48 328.903C395.909 328.499 394.471 327.915 393.169 327.152C391.866 326.388 390.811 325.355 390.003 324.053C389.239 322.75 388.857 321.066 388.857 319C388.857 316.71 389.509 314.689 390.811 312.937C392.158 311.185 394.09 309.816 396.605 308.828C399.12 307.795 402.129 307.278 405.632 307.278C408.102 307.278 410.617 307.548 413.177 308.087C415.737 308.625 417.871 309.411 419.577 310.444L416.074 317.922C414.323 316.889 412.548 316.193 410.752 315.834C409 315.43 407.294 315.228 405.632 315.228C403.297 315.228 401.59 315.542 400.512 316.171C399.434 316.799 398.895 317.608 398.895 318.596C398.895 319.494 399.277 320.168 400.04 320.617C400.849 321.066 401.904 321.425 403.207 321.695C404.509 321.964 405.924 322.211 407.451 322.436C409.023 322.616 410.595 322.907 412.167 323.312C413.739 323.716 415.153 324.3 416.411 325.063C417.713 325.782 418.769 326.792 419.577 328.095C420.386 329.352 420.79 331.014 420.79 333.08C420.79 335.326 420.116 337.324 418.769 339.076C417.421 340.783 415.468 342.13 412.908 343.118C410.393 344.106 407.316 344.6 403.678 344.6Z" fill="#FFE4B0"/>
<path d="M208.423 60.0288L200.3 63.6029V62.6119L207.253 59.5739L200.3 56.536V55.545L208.423 59.1191V60.0288ZM219.147 60.0288L211.024 63.6029V62.6119L217.978 59.5739L211.024 56.536V55.545L219.147 59.1191V60.0288ZM229.872 60.0288L221.749 63.6029V62.6119L228.702 59.5739L221.749 56.536V55.545L229.872 59.1191V60.0288ZM236.941 60.0126V65H235.804V56.4385H236.86V58.0468C237.141 57.527 237.526 57.1046 238.013 56.7797C238.511 56.4439 239.069 56.2761 239.687 56.2761C240.575 56.2761 241.284 56.5522 241.815 57.1046C242.356 57.6569 242.627 58.4367 242.627 59.444V65H241.49V59.8339C241.49 59.0108 241.306 58.3772 240.937 57.9331C240.58 57.4891 240.049 57.2671 239.345 57.2671C238.901 57.2671 238.495 57.3862 238.127 57.6245C237.759 57.8519 237.466 58.1714 237.25 58.583C237.044 58.9945 236.941 59.4711 236.941 60.0126ZM252.868 60.7111C252.868 61.5884 252.711 62.3628 252.397 63.0343C252.094 63.7058 251.66 64.231 251.097 64.6101C250.545 64.9783 249.884 65.1625 249.115 65.1625C248.476 65.1625 247.897 64.9946 247.377 64.6588C246.857 64.3231 246.451 63.852 246.159 63.2455V68.1354H245.021V56.4385H246.077V58.2905C246.37 57.6515 246.787 57.1587 247.328 56.8122C247.87 56.4548 248.465 56.2761 249.115 56.2761C249.873 56.2761 250.534 56.4656 251.097 56.8447C251.66 57.2129 252.094 57.7328 252.397 58.4042C252.711 59.0649 252.868 59.8339 252.868 60.7111ZM251.715 60.7111C251.715 59.6281 251.455 58.7833 250.935 58.1768C250.426 57.5703 249.754 57.2671 248.92 57.2671C248.4 57.2671 247.929 57.4024 247.507 57.6732C247.085 57.944 246.749 58.3339 246.5 58.8429C246.261 59.3519 246.142 59.9747 246.142 60.7111C246.142 61.4151 246.261 62.027 246.5 62.5469C246.738 63.0668 247.068 63.4675 247.491 63.7491C247.913 64.0307 248.39 64.1715 248.92 64.1715C249.754 64.1715 250.426 63.8682 250.935 63.2617C251.455 62.6552 251.715 61.805 251.715 60.7111ZM255.836 65H254.699V56.4385H255.755V58.0468C256.047 57.4945 256.432 57.0613 256.908 56.7472C257.396 56.4331 257.943 56.2761 258.549 56.2761C259.221 56.2761 259.789 56.4494 260.255 56.7959C260.732 57.1425 261.056 57.6299 261.23 58.258C261.49 57.6515 261.88 57.1696 262.399 56.8122C262.919 56.4548 263.515 56.2761 264.186 56.2761C265.075 56.2761 265.773 56.5577 266.282 57.1208C266.802 57.6732 267.062 58.4476 267.062 59.444V65H265.941V59.8176C265.941 58.9945 265.757 58.3663 265.389 57.9331C265.031 57.4891 264.506 57.2671 263.813 57.2671C263.38 57.2671 262.984 57.3862 262.627 57.6245C262.269 57.8519 261.982 58.1714 261.766 58.583C261.56 58.9837 261.457 59.4494 261.457 59.9801V65H260.32V59.8176C260.32 58.9945 260.141 58.3663 259.784 57.9331C259.426 57.4891 258.896 57.2671 258.192 57.2671C257.759 57.2671 257.358 57.3862 256.99 57.6245C256.632 57.8519 256.351 58.1714 256.145 58.583C255.939 58.9837 255.836 59.4494 255.836 59.9801V65ZM273.986 65H272.848V56.4385H273.986V65ZM274.327 54.4565C274.327 54.7056 274.24 54.9114 274.067 55.0739C273.904 55.2363 273.682 55.3176 273.401 55.3176C273.141 55.3176 272.924 55.2363 272.751 55.0739C272.578 54.9114 272.491 54.7056 272.491 54.4565C272.491 54.2074 272.578 54.0071 272.751 53.8555C272.924 53.693 273.141 53.6118 273.401 53.6118C273.682 53.6118 273.904 53.693 274.067 53.8555C274.24 54.0071 274.327 54.2074 274.327 54.4565ZM277.587 60.0126V65H276.45V56.4385H277.506V58.0468C277.787 57.527 278.172 57.1046 278.659 56.7797C279.157 56.4439 279.715 56.2761 280.333 56.2761C281.221 56.2761 281.93 56.5522 282.461 57.1046C283.002 57.6569 283.273 58.4367 283.273 59.444V65H282.136V59.8339C282.136 59.0108 281.952 58.3772 281.583 57.9331C281.226 57.4891 280.695 57.2671 279.991 57.2671C279.547 57.2671 279.141 57.3862 278.773 57.6245C278.405 57.8519 278.112 58.1714 277.896 58.583C277.69 58.9945 277.587 59.4711 277.587 60.0126ZM292.068 62.6119C292.068 63.4025 291.77 64.0253 291.175 64.4801C290.579 64.935 289.75 65.1625 288.689 65.1625C287.628 65.1625 286.783 64.9079 286.155 64.3989C285.537 63.8899 285.185 63.1967 285.099 62.3195H286.187C286.22 62.926 286.463 63.4079 286.918 63.7653C287.373 64.1227 287.963 64.3014 288.689 64.3014C289.393 64.3014 289.94 64.1715 290.33 63.9115C290.731 63.6516 290.931 63.278 290.931 62.7906C290.931 62.3682 290.796 62.0487 290.525 61.8321C290.254 61.6047 289.794 61.4259 289.144 61.296L287.909 61.0523C287.097 60.9007 286.48 60.6299 286.057 60.24C285.635 59.8393 285.424 59.3303 285.424 58.7129C285.424 58.2364 285.554 57.814 285.814 57.4458C286.084 57.0775 286.453 56.7905 286.918 56.5847C287.395 56.379 287.942 56.2761 288.559 56.2761C289.22 56.2761 289.794 56.3898 290.281 56.6172C290.779 56.8338 291.175 57.1479 291.467 57.5595C291.759 57.971 291.922 58.4638 291.954 59.0378H290.882C290.828 58.4422 290.595 57.9819 290.184 57.6569C289.772 57.3212 289.231 57.1533 288.559 57.1533C287.953 57.1533 287.46 57.2833 287.081 57.5432C286.712 57.8032 286.528 58.1606 286.528 58.6154C286.528 59.0378 286.664 59.3627 286.934 59.5902C287.216 59.8176 287.676 59.9909 288.315 60.11L289.599 60.3537C290.444 60.5162 291.066 60.7815 291.467 61.1498C291.868 61.518 292.068 62.0054 292.068 62.6119ZM298.383 63.9115V64.9188C298.167 65.0162 297.961 65.0812 297.766 65.1137C297.571 65.1462 297.365 65.1625 297.148 65.1625C296.683 65.1625 296.26 65.0758 295.881 64.9025C295.502 64.7292 295.199 64.4531 294.972 64.074C294.755 63.6949 294.647 63.1967 294.647 62.5794V57.397H292.632V56.4385H294.647V53.9042H295.784V56.4385H298.464V57.397H295.784V62.3357C295.784 63.0072 295.93 63.4729 296.222 63.7328C296.526 63.9928 296.91 64.1227 297.376 64.1227C297.56 64.1227 297.728 64.1065 297.88 64.074C298.042 64.0415 298.21 63.9874 298.383 63.9115ZM305.447 65V63.4404C305.198 63.9711 304.825 64.3935 304.326 64.7076C303.828 65.0108 303.243 65.1625 302.572 65.1625C301.684 65.1625 300.974 64.935 300.444 64.4801C299.913 64.0144 299.648 63.3971 299.648 62.6281C299.648 61.7942 299.978 61.166 300.639 60.7436C301.299 60.3104 302.279 60.0938 303.579 60.0938C303.839 60.0938 304.094 60.0992 304.343 60.11C304.592 60.1209 304.922 60.148 305.334 60.1913V59.4602C305.334 58.7454 305.15 58.1876 304.781 57.7869C304.424 57.3862 303.92 57.1858 303.27 57.1858C302.577 57.1858 302.025 57.3916 301.613 57.8032C301.202 58.2039 300.991 58.7508 300.98 59.444H299.94C299.951 58.805 300.097 58.2526 300.379 57.7869C300.66 57.3104 301.045 56.9421 301.532 56.6822C302.03 56.4114 302.604 56.2761 303.254 56.2761C304.261 56.2761 305.041 56.5522 305.594 57.1046C306.146 57.6569 306.422 58.4313 306.422 59.4277V65H305.447ZM300.736 62.5956C300.736 63.1155 300.92 63.5379 301.288 63.8628C301.657 64.1769 302.139 64.3339 302.734 64.3339C303.536 64.3339 304.169 64.0957 304.635 63.6191C305.101 63.1317 305.334 62.4873 305.334 61.6859V60.9223C304.965 60.8898 304.646 60.8682 304.375 60.8573C304.115 60.8465 303.866 60.8411 303.628 60.8411C302.664 60.8411 301.938 60.9873 301.451 61.2797C300.974 61.5613 300.736 62 300.736 62.5956ZM309.951 65H308.814V53.3356H309.951V65ZM313.553 65H312.416V53.3356H313.553V65ZM322.775 65.1625C321.973 65.1625 321.269 64.9783 320.663 64.6101C320.067 64.231 319.602 63.7003 319.266 63.018C318.941 62.3357 318.778 61.5451 318.778 60.6462C318.778 59.8122 318.946 59.0703 319.282 58.4205C319.629 57.7598 320.094 57.24 320.679 56.8609C321.275 56.471 321.952 56.2761 322.71 56.2761C323.316 56.2761 323.863 56.3952 324.351 56.6335C324.849 56.8609 325.266 57.1858 325.602 57.6082C325.948 58.0306 326.203 58.5288 326.365 59.1028C326.538 59.666 326.598 60.2942 326.544 60.9873H319.396V60.2075H325.358C325.315 59.2436 325.055 58.4963 324.578 57.9656C324.112 57.4241 323.484 57.1533 322.694 57.1533C322.141 57.1533 321.654 57.2995 321.232 57.592C320.82 57.8736 320.495 58.2743 320.257 58.7941C320.019 59.314 319.899 59.9313 319.899 60.6462C319.899 61.3826 320.013 62.027 320.241 62.5794C320.468 63.1209 320.793 63.5379 321.215 63.8303C321.649 64.1227 322.163 64.2689 322.759 64.2689C323.473 64.2689 324.064 64.0794 324.529 63.7003C325.006 63.3104 325.315 62.7798 325.455 62.1083H326.576C326.381 63.0505 325.943 63.7978 325.26 64.3502C324.589 64.8917 323.76 65.1625 322.775 65.1625ZM328.317 65H327.05L330.202 60.6137L327.245 56.4385H328.545L330.965 59.8989L333.402 56.4385H334.621L331.696 60.6462L334.815 65H333.516L330.9 61.3285L328.317 65ZM339.096 65.1787C338.338 65.1787 337.672 64.9892 337.098 64.6101C336.524 64.231 336.074 63.7058 335.749 63.0343C335.425 62.3628 335.262 61.5884 335.262 60.7111C335.262 59.8447 335.425 59.0812 335.749 58.4205C336.074 57.749 336.524 57.2237 337.098 56.8447C337.683 56.4656 338.349 56.2761 339.096 56.2761C339.757 56.2761 340.352 56.4169 340.883 56.6985C341.414 56.98 341.847 57.3808 342.183 57.9006C342.529 58.4205 342.757 59.0378 342.865 59.7526H341.712C341.582 58.9728 341.284 58.3663 340.818 57.9331C340.363 57.4891 339.789 57.2671 339.096 57.2671C338.565 57.2671 338.094 57.4133 337.683 57.7057C337.282 57.9981 336.968 58.3988 336.74 58.9079C336.524 59.4169 336.416 60.018 336.416 60.7111C336.416 61.4043 336.524 62.0162 336.74 62.5469C336.968 63.0668 337.282 63.4729 337.683 63.7653C338.094 64.0469 338.565 64.1877 339.096 64.1877C339.8 64.1877 340.38 63.9711 340.834 63.5379C341.289 63.0938 341.582 62.4765 341.712 61.6859H342.865C342.768 62.4115 342.546 63.0343 342.199 63.5541C341.863 64.074 341.43 64.4747 340.899 64.7563C340.369 65.0379 339.768 65.1787 339.096 65.1787ZM347.937 65.1625C347.135 65.1625 346.431 64.9783 345.825 64.6101C345.229 64.231 344.763 63.7003 344.428 63.018C344.103 62.3357 343.94 61.5451 343.94 60.6462C343.94 59.8122 344.108 59.0703 344.444 58.4205C344.79 57.7598 345.256 57.24 345.841 56.8609C346.437 56.471 347.114 56.2761 347.872 56.2761C348.478 56.2761 349.025 56.3952 349.513 56.6335C350.011 56.8609 350.428 57.1858 350.763 57.6082C351.11 58.0306 351.365 58.5288 351.527 59.1028C351.7 59.666 351.76 60.2942 351.706 60.9873H344.558V60.2075H350.52C350.476 59.2436 350.216 58.4963 349.74 57.9656C349.274 57.4241 348.646 57.1533 347.855 57.1533C347.303 57.1533 346.816 57.2995 346.393 57.592C345.982 57.8736 345.657 58.2743 345.419 58.7941C345.18 59.314 345.061 59.9313 345.061 60.6462C345.061 61.3826 345.175 62.027 345.402 62.5794C345.63 63.1209 345.955 63.5379 346.377 63.8303C346.81 64.1227 347.325 64.2689 347.92 64.2689C348.635 64.2689 349.225 64.0794 349.691 63.7003C350.168 63.3104 350.476 62.7798 350.617 62.1083H351.738C351.543 63.0505 351.105 63.7978 350.422 64.3502C349.751 64.8917 348.922 65.1625 347.937 65.1625ZM354.722 65H353.585V53.3356H354.722V65ZM358.324 65H357.186V53.3356H358.324V65ZM364.151 65.1625C363.349 65.1625 362.645 64.9783 362.039 64.6101C361.443 64.231 360.977 63.7003 360.642 63.018C360.317 62.3357 360.154 61.5451 360.154 60.6462C360.154 59.8122 360.322 59.0703 360.658 58.4205C361.004 57.7598 361.47 57.24 362.055 56.8609C362.651 56.471 363.328 56.2761 364.086 56.2761C364.692 56.2761 365.239 56.3952 365.726 56.6335C366.225 56.8609 366.642 57.1858 366.977 57.6082C367.324 58.0306 367.578 58.5288 367.741 59.1028C367.914 59.666 367.974 60.2942 367.92 60.9873H360.772V60.2075H366.734C366.69 59.2436 366.43 58.4963 365.954 57.9656C365.488 57.4241 364.86 57.1533 364.069 57.1533C363.517 57.1533 363.03 57.2995 362.607 57.592C362.196 57.8736 361.871 58.2743 361.633 58.7941C361.394 59.314 361.275 59.9313 361.275 60.6462C361.275 61.3826 361.389 62.027 361.616 62.5794C361.844 63.1209 362.169 63.5379 362.591 63.8303C363.024 64.1227 363.539 64.2689 364.134 64.2689C364.849 64.2689 365.439 64.0794 365.905 63.7003C366.382 63.3104 366.69 62.7798 366.831 62.1083H367.952C367.757 63.0505 367.319 63.7978 366.636 64.3502C365.965 64.8917 365.136 65.1625 364.151 65.1625ZM370.936 60.0126V65H369.799V56.4385H370.855V58.0468C371.137 57.527 371.521 57.1046 372.008 56.7797C372.507 56.4439 373.064 56.2761 373.682 56.2761C374.57 56.2761 375.279 56.5522 375.81 57.1046C376.351 57.6569 376.622 58.4367 376.622 59.444V65H375.485V59.8339C375.485 59.0108 375.301 58.3772 374.933 57.9331C374.575 57.4891 374.045 57.2671 373.341 57.2671C372.897 57.2671 372.49 57.3862 372.122 57.6245C371.754 57.8519 371.462 58.1714 371.245 58.583C371.039 58.9945 370.936 59.4711 370.936 60.0126ZM382.217 65.1787C381.459 65.1787 380.793 64.9892 380.219 64.6101C379.645 64.231 379.195 63.7058 378.87 63.0343C378.545 62.3628 378.383 61.5884 378.383 60.7111C378.383 59.8447 378.545 59.0812 378.87 58.4205C379.195 57.749 379.645 57.2237 380.219 56.8447C380.804 56.4656 381.47 56.2761 382.217 56.2761C382.878 56.2761 383.473 56.4169 384.004 56.6985C384.535 56.98 384.968 57.3808 385.304 57.9006C385.65 58.4205 385.878 59.0378 385.986 59.7526H384.833C384.703 58.9728 384.405 58.3663 383.939 57.9331C383.484 57.4891 382.91 57.2671 382.217 57.2671C381.686 57.2671 381.215 57.4133 380.804 57.7057C380.403 57.9981 380.089 58.3988 379.861 58.9079C379.645 59.4169 379.536 60.018 379.536 60.7111C379.536 61.4043 379.645 62.0162 379.861 62.5469C380.089 63.0668 380.403 63.4729 380.804 63.7653C381.215 64.0469 381.686 64.1877 382.217 64.1877C382.921 64.1877 383.5 63.9711 383.955 63.5379C384.41 63.0938 384.703 62.4765 384.833 61.6859H385.986C385.889 62.4115 385.666 63.0343 385.32 63.5541C384.984 64.074 384.551 64.4747 384.02 64.7563C383.49 65.0379 382.888 65.1787 382.217 65.1787ZM391.058 65.1625C390.256 65.1625 389.552 64.9783 388.946 64.6101C388.35 64.231 387.884 63.7003 387.548 63.018C387.224 62.3357 387.061 61.5451 387.061 60.6462C387.061 59.8122 387.229 59.0703 387.565 58.4205C387.911 57.7598 388.377 57.24 388.962 56.8609C389.558 56.471 390.234 56.2761 390.993 56.2761C391.599 56.2761 392.146 56.3952 392.633 56.6335C393.132 56.8609 393.549 57.1858 393.884 57.6082C394.231 58.0306 394.485 58.5288 394.648 59.1028C394.821 59.666 394.881 60.2942 394.827 60.9873H387.678V60.2075H393.641C393.597 59.2436 393.337 58.4963 392.861 57.9656C392.395 57.4241 391.767 57.1533 390.976 57.1533C390.424 57.1533 389.937 57.2995 389.514 57.592C389.103 57.8736 388.778 58.2743 388.539 58.7941C388.301 59.314 388.182 59.9313 388.182 60.6462C388.182 61.3826 388.296 62.027 388.523 62.5794C388.751 63.1209 389.076 63.5379 389.498 63.8303C389.931 64.1227 390.446 64.2689 391.041 64.2689C391.756 64.2689 392.346 64.0794 392.812 63.7003C393.289 63.3104 393.597 62.7798 393.738 62.1083H394.859C394.664 63.0505 394.225 63.7978 393.543 64.3502C392.872 64.8917 392.043 65.1625 391.058 65.1625Z" fill="url(#paint0_linear_17_458)"/>
<path d="M208.423 83.0288L200.3 86.6029V85.6119L207.253 82.5739L200.3 79.536V78.545L208.423 82.1191V83.0288ZM219.147 83.0288L211.024 86.6029V85.6119L217.978 82.5739L211.024 79.536V78.545L219.147 82.1191V83.0288ZM229.872 83.0288L221.749 86.6029V85.6119L228.702 82.5739L221.749 79.536V78.545L229.872 82.1191V83.0288ZM236.925 79.4385V88.8123C236.925 89.3538 236.827 89.8087 236.632 90.1769C236.437 90.556 236.161 90.8376 235.804 91.0217C235.457 91.2058 235.04 91.2979 234.553 91.2979C234.401 91.2979 234.233 91.287 234.049 91.2654C233.865 91.2546 233.681 91.2112 233.497 91.1354V90.0957C233.649 90.1498 233.8 90.1878 233.952 90.2094C234.093 90.2419 234.255 90.2582 234.439 90.2582C234.851 90.2582 235.181 90.139 235.43 89.9007C235.679 89.6733 235.804 89.3051 235.804 88.796V79.4385H236.925ZM237.298 77.4565C237.298 77.7056 237.212 77.9114 237.039 78.0739C236.865 78.2363 236.643 78.3176 236.372 78.3176C236.102 78.3176 235.88 78.2363 235.706 78.0739C235.533 77.9114 235.446 77.7056 235.446 77.4565C235.446 77.2074 235.533 77.0071 235.706 76.8555C235.88 76.693 236.102 76.6118 236.372 76.6118C236.643 76.6118 236.865 76.693 237.039 76.8555C237.212 77.0071 237.298 77.2074 237.298 77.4565ZM242.817 88.1625C242.232 88.1625 241.691 88.0542 241.193 87.8375C240.694 87.6209 240.261 87.3123 239.893 86.9115C239.536 86.5108 239.254 86.0397 239.048 85.4982C238.853 84.9566 238.756 84.361 238.756 83.7111C238.756 83.0721 238.853 82.4819 239.048 81.9404C239.254 81.3988 239.536 80.9331 239.893 80.5432C240.261 80.1425 240.694 79.8338 241.193 79.6172C241.691 79.4006 242.232 79.2923 242.817 79.2923C243.413 79.2923 243.96 79.4006 244.458 79.6172C244.956 79.8338 245.384 80.1425 245.741 80.5432C246.11 80.9331 246.391 81.3988 246.586 81.9404C246.792 82.4819 246.895 83.0721 246.895 83.7111C246.895 84.361 246.792 84.9566 246.586 85.4982C246.391 86.0397 246.11 86.5108 245.741 86.9115C245.384 87.3123 244.956 87.6209 244.458 87.8375C243.96 88.0542 243.413 88.1625 242.817 88.1625ZM242.817 87.1877C243.38 87.1877 243.879 87.0469 244.312 86.7653C244.756 86.4729 245.102 86.0668 245.351 85.5469C245.611 85.027 245.741 84.4151 245.741 83.7111C245.741 83.0072 245.611 82.4007 245.351 81.8916C245.102 81.3826 244.756 80.9873 244.312 80.7057C243.879 80.4241 243.38 80.2833 242.817 80.2833C242.265 80.2833 241.767 80.4241 241.323 80.7057C240.889 80.9873 240.543 81.3826 240.283 81.8916C240.034 82.4007 239.909 83.0072 239.909 83.7111C239.909 84.4151 240.034 85.027 240.283 85.5469C240.543 86.0668 240.889 86.4729 241.323 86.7653C241.767 87.0469 242.265 87.1877 242.817 87.1877ZM249.871 88H248.734V79.4385H249.871V88ZM250.212 77.4565C250.212 77.7056 250.125 77.9114 249.952 78.0739C249.79 78.2363 249.568 78.3176 249.286 78.3176C249.026 78.3176 248.81 78.2363 248.636 78.0739C248.463 77.9114 248.376 77.7056 248.376 77.4565C248.376 77.2074 248.463 77.0071 248.636 76.8555C248.81 76.693 249.026 76.6118 249.286 76.6118C249.568 76.6118 249.79 76.693 249.952 76.8555C250.125 77.0071 250.212 77.2074 250.212 77.4565ZM253.472 83.0126V88H252.335V79.4385H253.391V81.0468C253.673 80.527 254.057 80.1046 254.545 79.7797C255.043 79.4439 255.6 79.2761 256.218 79.2761C257.106 79.2761 257.815 79.5522 258.346 80.1046C258.888 80.6569 259.158 81.4367 259.158 82.444V88H258.021V82.8339C258.021 82.0108 257.837 81.3772 257.469 80.9331C257.111 80.4891 256.581 80.2671 255.877 80.2671C255.433 80.2671 255.026 80.3862 254.658 80.6245C254.29 80.8519 253.998 81.1714 253.781 81.583C253.575 81.9945 253.472 82.4711 253.472 83.0126ZM270.423 84.5559V79.4385H271.543V88H270.488V86.4567C270.271 86.9549 269.919 87.3664 269.432 87.6913C268.944 88.0054 268.386 88.1625 267.758 88.1625C267.184 88.1625 266.675 88.0542 266.231 87.8375C265.798 87.6101 265.462 87.2635 265.224 86.7978C264.986 86.3213 264.866 85.7256 264.866 85.0108V79.4385H266.004V84.7671C266.004 85.6335 266.199 86.2563 266.589 86.6354C266.978 87.0036 267.471 87.1877 268.067 87.1877C268.522 87.1877 268.923 87.074 269.269 86.8466C269.626 86.6191 269.908 86.305 270.114 85.9043C270.32 85.5036 270.423 85.0541 270.423 84.5559ZM280.407 85.6119C280.407 86.4025 280.11 87.0253 279.514 87.4801C278.918 87.935 278.09 88.1625 277.028 88.1625C275.967 88.1625 275.122 87.9079 274.494 87.3989C273.877 86.8899 273.525 86.1967 273.438 85.3195H274.526C274.559 85.926 274.803 86.4079 275.258 86.7653C275.712 87.1227 276.303 87.3014 277.028 87.3014C277.732 87.3014 278.279 87.1715 278.669 86.9115C279.07 86.6516 279.27 86.278 279.27 85.7906C279.27 85.3682 279.135 85.0487 278.864 84.8321C278.593 84.6047 278.133 84.4259 277.483 84.296L276.249 84.0523C275.436 83.9007 274.819 83.6299 274.396 83.24C273.974 82.8393 273.763 82.3303 273.763 81.7129C273.763 81.2364 273.893 80.814 274.153 80.4458C274.424 80.0775 274.792 79.7905 275.258 79.5847C275.734 79.379 276.281 79.2761 276.898 79.2761C277.559 79.2761 278.133 79.3898 278.62 79.6172C279.119 79.8338 279.514 80.1479 279.806 80.5595C280.099 80.971 280.261 81.4638 280.294 82.0378H279.221C279.167 81.4422 278.934 80.9819 278.523 80.6569C278.111 80.3212 277.57 80.1533 276.898 80.1533C276.292 80.1533 275.799 80.2833 275.42 80.5432C275.052 80.8032 274.868 81.1606 274.868 81.6154C274.868 82.0378 275.003 82.3627 275.274 82.5902C275.555 82.8176 276.016 82.9909 276.655 83.11L277.938 83.3537C278.783 83.5162 279.406 83.7815 279.806 84.1498C280.207 84.518 280.407 85.0054 280.407 85.6119Z" fill="url(#paint1_linear_17_458)"/>
<path d="M200.3 506.119L208.423 502.545V503.536L201.469 506.574L208.423 509.612V510.603L200.3 507.029V506.119ZM210.602 515.135H209.497L216.694 500.336H217.815L210.602 515.135ZM219.95 507.013V512H218.813V500.336H219.95V505.014C220.21 504.505 220.578 504.088 221.054 503.763C221.531 503.439 222.078 503.276 222.695 503.276C223.583 503.276 224.293 503.552 224.823 504.105C225.365 504.657 225.636 505.437 225.636 506.444V512H224.498V506.834C224.498 506.011 224.314 505.377 223.946 504.933C223.589 504.489 223.058 504.267 222.354 504.267C221.91 504.267 221.504 504.386 221.136 504.624C220.767 504.852 220.475 505.171 220.258 505.583C220.053 505.995 219.95 506.471 219.95 507.013ZM232.417 510.912V511.919C232.2 512.016 231.994 512.081 231.799 512.114C231.604 512.146 231.399 512.162 231.182 512.162C230.716 512.162 230.294 512.076 229.915 511.903C229.536 511.729 229.233 511.453 229.005 511.074C228.789 510.695 228.68 510.197 228.68 509.579V504.397H226.666V503.439H228.68V500.904H229.817V503.439H232.498V504.397H229.817V509.336C229.817 510.007 229.964 510.473 230.256 510.733C230.559 510.993 230.944 511.123 231.41 511.123C231.594 511.123 231.762 511.106 231.913 511.074C232.076 511.042 232.243 510.987 232.417 510.912ZM235.355 512H234.217V503.439H235.273V505.047C235.566 504.494 235.95 504.061 236.427 503.747C236.914 503.433 237.461 503.276 238.068 503.276C238.739 503.276 239.308 503.449 239.773 503.796C240.25 504.143 240.575 504.63 240.748 505.258C241.008 504.652 241.398 504.17 241.918 503.812C242.438 503.455 243.033 503.276 243.705 503.276C244.593 503.276 245.291 503.558 245.801 504.121C246.32 504.673 246.58 505.448 246.58 506.444V512H245.459V506.818C245.459 505.995 245.275 505.366 244.907 504.933C244.55 504.489 244.024 504.267 243.331 504.267C242.898 504.267 242.503 504.386 242.145 504.624C241.788 504.852 241.501 505.171 241.284 505.583C241.078 505.984 240.976 506.449 240.976 506.98V512H239.838V506.818C239.838 505.995 239.66 505.366 239.302 504.933C238.945 504.489 238.414 504.267 237.71 504.267C237.277 504.267 236.876 504.386 236.508 504.624C236.151 504.852 235.869 505.171 235.663 505.583C235.457 505.984 235.355 506.449 235.355 506.98V512ZM250.109 512H248.972V500.336H250.109V512ZM260.761 507.029L252.638 510.603V509.612L259.591 506.574L252.638 503.536V502.545L260.761 506.119V507.029Z" fill="url(#paint2_linear_17_458)"/>
<defs>
<linearGradient id="paint0_linear_17_458" x1="264.471" y1="53.1888" x2="323.593" y2="194.145" gradientUnits="userSpaceOnUse">
<stop stop-color="white"/>
<stop offset="1" stop-color="#343434"/>
</linearGradient>
<linearGradient id="paint1_linear_17_458" x1="264.471" y1="76.1888" x2="323.593" y2="217.145" gradientUnits="userSpaceOnUse">
<stop stop-color="white"/>
<stop offset="1" stop-color="#343434"/>
</linearGradient>
<linearGradient id="paint2_linear_17_458" x1="252.85" y1="500.059" x2="324.871" y2="635.05" gradientUnits="userSpaceOnUse">
<stop stop-color="white"/>
<stop offset="1" stop-color="#343434"/>
</linearGradient>
</defs>
</svg>
